<svg width="34" height="14" viewBox="0 0 34 14" fill="none" xmlns="http://www.w3.org/2000/svg">
<path d="M12.0243 6.46341C13.3831 4.91669 17.2085 2.69909 21.6398 6.20242M13.2568 7C13.2568 10.3137 10.513 13 7.1284 13C3.74378 13 1 10.3137 1 7C1 3.68629 3.74378 1 7.1284 1C10.513 1 13.2568 3.68629 13.2568 7ZM33 7C33 10.3137 30.2562 13 26.8716 13C23.487 13 20.7432 10.3137 20.7432 7C20.7432 3.68629 23.487 1 26.8716 1C30.2562 1 33 3.68629 33 7Z" stroke="white" stroke-width="2" stroke-linecap="round"/>
</svg>
