<svg width="238" height="238" viewBox="0 0 238 238" fill="none" xmlns="http://www.w3.org/2000/svg">
<path fill-rule="evenodd" clip-rule="evenodd" d="M119.273 27.6277C143.524 27.6277 166.781 37.2612 183.929 54.4088C201.076 71.5565 210.71 94.8137 210.71 119.064C210.71 137.149 205.347 154.827 195.3 169.864C185.253 184.9 170.972 196.62 154.264 203.541C137.557 210.461 119.172 212.272 101.435 208.744C83.6978 205.216 67.4054 196.507 54.6177 183.72C41.8301 170.932 33.1216 154.64 29.5935 136.903C26.0654 119.166 27.8762 100.781 34.7968 84.073C41.7174 67.3651 53.4371 53.0847 68.4738 43.0375C83.5105 32.9903 101.189 27.6277 119.273 27.6277Z" fill="#D3D4E8"/>
<path fill-rule="evenodd" clip-rule="evenodd" d="M119.273 41.9683C129.398 41.9683 139.423 43.9624 148.777 47.8368C158.13 51.7113 166.629 57.3901 173.788 64.5492C180.947 71.7082 186.626 80.2072 190.501 89.5609C194.375 98.9146 196.369 108.94 196.369 119.064C196.369 134.312 191.848 149.218 183.376 161.897C174.905 174.575 162.864 184.456 148.777 190.292C134.689 196.127 119.188 197.654 104.232 194.679C89.2773 191.704 75.5401 184.361 64.7581 173.579C53.976 162.797 46.6333 149.06 43.6585 134.105C40.6838 119.15 42.2105 103.648 48.0457 89.5609C53.881 75.4735 63.7626 63.4327 76.4409 54.9613C89.1193 46.4899 104.025 41.9683 119.273 41.9683Z" fill="#E2E3F0"/>
<path fill-rule="evenodd" clip-rule="evenodd" d="M119.273 56.3088C135.917 56.3088 151.879 62.9206 163.648 74.6895C175.417 86.4584 182.029 102.421 182.029 119.064C182.029 131.476 178.348 143.609 171.453 153.93C164.557 164.25 154.756 172.293 143.289 177.043C131.822 181.793 119.204 183.036 107.03 180.614C94.8569 178.193 83.6749 172.216 74.8983 163.439C66.1218 154.663 60.1449 143.481 57.7234 131.308C55.302 119.134 56.5448 106.516 61.2946 95.0489C66.0444 83.5819 74.088 73.7808 84.4081 66.8851C94.7282 59.9894 106.861 56.3088 119.273 56.3088Z" fill="#F0F0F7"/>
<path fill-rule="evenodd" clip-rule="evenodd" d="M119.273 70.6492C132.114 70.6492 144.428 75.75 153.508 84.8296C162.588 93.9092 167.688 106.224 167.688 119.064C167.688 128.64 164.849 138.001 159.529 145.962C154.209 153.924 146.648 160.13 137.801 163.794C128.954 167.459 119.22 168.417 109.828 166.549C100.436 164.681 91.8095 160.07 85.0385 153.299C78.2675 146.528 73.6564 137.901 71.7883 128.51C69.9202 119.118 70.879 109.383 74.5434 100.537C78.2079 91.6899 84.4134 84.1285 92.3752 78.8086C100.337 73.4887 109.698 70.6492 119.273 70.6492Z" fill="white"/>
<path d="M119.273 27.6277C143.524 27.6277 166.781 37.2612 183.929 54.4088C201.076 71.5565 210.71 94.8137 210.71 119.064C210.71 137.149 205.347 154.827 195.3 169.864C185.253 184.9 170.972 196.62 154.264 203.541C137.557 210.461 119.172 212.272 101.435 208.744C83.6978 205.216 67.4054 196.507 54.6177 183.72C41.8301 170.932 33.1216 154.64 29.5935 136.903C26.0654 119.166 27.8762 100.781 34.7968 84.073C41.7174 67.3651 53.4371 53.0847 68.4738 43.0375C83.5105 32.9903 101.189 27.6277 119.273 27.6277Z" stroke="#004394" stroke-width="5.6693"/>
<path fill-rule="evenodd" clip-rule="evenodd" d="M103.526 204.743C104.322 205.243 105.868 205.079 106.733 204.673C108.212 203.98 108.427 200.136 108.322 198.659C108.216 197.173 107.661 197.029 107.864 195.495C108.214 192.849 107.569 192.826 109.179 189.092C113.372 179.372 114.091 182.338 114.965 171.906C115.262 168.366 115.527 168.911 116.7 165.931C117.733 163.31 115.808 163.729 117.935 159.899L116.287 155.147C113.755 155.204 114.423 156.522 113.53 158.805C112.945 160.299 112.002 162.131 111.528 163.538C110.886 165.447 110.854 170.054 108.347 173.647C108.851 175.419 108.172 175.8 107.666 177.261C107.175 178.68 107.522 180.363 107.558 181.846C107.658 185.873 106.945 186.131 105.554 189.407C104.468 191.965 103.926 196.824 104.905 199.463C105.465 200.973 104.135 203.985 103.526 204.743Z" fill="#004394"/>
<path fill-rule="evenodd" clip-rule="evenodd" d="M150.622 107.58C151.702 108.186 151.746 109.722 153.207 110.251C154.348 109.674 154.332 108.654 154.453 107.441C154.571 106.251 154.734 105.233 154.867 104.064C153.478 104.343 151.383 106.399 150.622 107.58Z" fill="#FBFBFB"/>
<path fill-rule="evenodd" clip-rule="evenodd" d="M74.4386 22.9684C75.4849 24.815 75.833 26.49 75.4791 27.9997C75.1257 29.5092 74.0947 30.746 72.3889 31.7129C70.6828 32.6798 69.0922 32.9286 67.6153 32.4565C66.1383 31.9844 64.877 30.8199 63.826 28.9656C62.7754 27.1116 62.4299 25.435 62.7937 23.9368C63.1548 22.4403 64.1938 21.2058 65.905 20.2358C67.6159 19.2662 69.2051 19.0146 70.6685 19.4873C72.135 19.9589 73.3906 21.1195 74.4386 22.9684ZM66.3092 27.5756C67.0151 28.8214 67.7826 29.6233 68.6114 29.9884C69.4412 30.3498 70.3269 30.2636 71.2658 29.7315C73.1512 28.6629 73.3821 26.8759 71.9627 24.3715C70.5406 21.862 68.894 21.1392 67.0191 22.2017C66.0777 22.7354 65.5501 23.4535 65.4299 24.3563C65.3121 25.2582 65.6048 26.3327 66.3092 27.5756ZM89.619 24.1017L87.0807 25.0364L83.4367 15.1403L80.4942 16.2238L80.7684 17.3747C81.4597 20.2992 81.8844 22.3789 82.0427 23.6043C82.1994 24.8335 82.1131 25.7669 81.7842 26.4133C81.4541 27.0573 80.8636 27.5295 80.0096 27.8314C79.5496 28.0006 79.1227 28.0878 78.7278 28.0962L77.9594 26.0093C78.3166 26.0021 78.6373 25.9476 78.9151 25.8453C79.2068 25.738 79.3882 25.5214 79.4584 25.193C79.5313 24.8636 79.5093 24.3107 79.3926 23.5353C79.2786 22.7588 79.0429 21.5043 78.6885 19.7716C78.3327 18.0358 77.9749 16.4062 77.6097 14.878L85.1942 12.0852L89.619 24.1017ZM89.8377 10.7162L92.2165 10.1643L93.6145 16.1886L93.957 17.8091L94.2952 19.6636L94.3475 19.6515L97.9035 8.84459L101.068 8.1101L103.963 20.5839L101.607 21.1305L100.217 15.1411C100.031 14.3376 99.8075 13.1374 99.5441 11.5384L99.4772 11.554L95.915 22.4516L92.7325 23.1901L89.8377 10.7162ZM112.611 19.8459L108.886 10.0189L108.809 10.024C109.05 12.0571 109.195 13.4135 109.239 14.0938L109.622 20.0385L107.2 20.195L106.376 7.41608L110.066 7.17805L113.718 16.7552L113.771 16.7517L116.351 6.77293L120.038 6.53516L120.862 19.3139L118.335 19.4768L117.945 13.4275C117.927 13.1439 117.912 12.8127 117.896 12.4391C117.881 12.0655 117.856 11.0727 117.821 9.46061L117.743 9.46548L115.093 19.6858L112.611 19.8459ZM134.191 20.4178L131.496 20.1765L132.438 9.67287L127.745 9.2523L126.804 19.7559L124.101 19.5138L125.244 6.75958L135.333 7.66359L134.191 20.4178ZM140.586 8.4844L142.951 9.08984L141.418 15.0812L140.976 16.6774L140.422 18.4795L140.474 18.4929L148.607 10.5376L151.755 11.3432L148.579 23.7485L146.237 23.149L147.761 17.1924C147.966 16.3931 148.32 15.225 148.823 13.6844L148.756 13.6673L140.576 21.7L137.411 20.89L140.586 8.4844ZM158.524 27.4749L151.631 24.854L156.182 12.8847L163.075 15.5055L162.284 17.5842L157.929 15.9281L156.928 18.56L160.979 20.1003L160.189 22.179L156.138 20.6387L154.965 23.7233L159.321 25.3793L158.524 27.4749ZM171.082 30.9915L172.786 31.8544L170.128 37.1054L167.792 35.9227L169.477 32.5945L161.065 28.3358L166.85 16.9114L169.271 18.1373L164.508 27.5457L168.716 29.6763L173.479 20.2679L175.893 21.4898L171.082 30.9915Z" fill="#004394"/>
<path fill-rule="evenodd" clip-rule="evenodd" d="M15.4648 139.904L15.1813 138.312L18.4321 137.733L17.9007 134.749L14.6499 135.328L14.3654 133.731L21.9015 132.389L22.186 133.986L19.2306 134.512L19.7623 137.496L22.7176 136.97L23.0012 138.561L15.4648 139.904ZM23.3226 140.181L23.6834 141.595L20.1007 142.509L19.1369 142.735L18.0326 142.961L18.0408 142.992L24.5457 144.976L25.0256 146.859L17.6083 148.75L17.2511 147.35L20.8126 146.441C21.2902 146.319 22.0048 146.171 22.957 145.992L22.9467 145.952L16.3877 143.965L15.905 142.072L23.3226 140.181ZM22.5704 151.076L25.0575 147.343L25.6657 148.899L23.1141 152.556L26.5673 151.206L27.1179 152.614L23.6644 153.964L28.0195 154.92L28.6297 156.481L24.2682 155.42L21.5537 159.405L20.9206 157.785L23.6012 153.988L19.9883 155.401L19.438 153.993L23.051 152.58L18.5057 151.608L17.8727 149.989L22.5704 151.076ZM23.9489 164.521L22.0946 160.523L29.0393 157.302L30.8936 161.301L29.6875 161.861L28.5157 159.333L26.9887 160.041L28.0785 162.392L26.8724 162.951L25.7826 160.601L23.9931 161.43L25.1648 163.958L23.9489 164.521ZM33.8227 166.674L32.6541 167.33L31.0803 164.527L25.5743 167.618L24.78 166.204L31.4549 162.456L33.8227 166.674ZM34.805 175.453C33.7428 176.146 32.7565 176.417 31.8427 176.263C30.9286 176.108 30.1518 175.54 29.5108 174.559C28.8698 173.578 28.6617 172.638 28.8878 171.739C29.1136 170.84 29.7611 170.044 30.8279 169.347C31.8946 168.651 32.8815 168.381 33.7891 168.542C34.6956 168.701 35.4711 169.274 36.1141 170.259C36.757 171.243 36.9668 172.182 36.74 173.073C36.514 173.965 35.8685 174.758 34.805 175.453ZM31.7506 170.776C31.0338 171.244 30.5843 171.732 30.3975 172.24C30.2133 172.749 30.2981 173.274 30.6509 173.814C31.3592 174.899 32.4341 174.969 33.8749 174.029C35.3184 173.085 35.6878 172.076 34.9832 170.997C34.6294 170.456 34.1811 170.168 33.6378 170.13C33.0952 170.094 32.4654 170.309 31.7506 170.776ZM36.8129 177.907L37.1406 178.329C37.4476 178.724 37.7543 178.959 38.0622 179.032C38.3696 179.107 38.6728 179.028 38.9704 178.797C39.271 178.563 39.4291 178.309 39.4456 178.034C39.4611 177.759 39.3337 177.447 39.0607 177.095L38.608 176.512L36.8129 177.907ZM40.0208 180.056C39.3699 180.561 38.714 180.745 38.054 180.606C37.394 180.467 36.7727 180.022 36.1906 179.272L35.763 178.722L33.6123 180.393L32.6172 179.111L38.6628 174.416L40.1621 176.346C40.7321 177.08 41.007 177.76 40.9893 178.387C40.9692 179.014 40.6458 179.57 40.0208 180.056ZM44.3317 187.354C43.3833 188.197 42.4475 188.61 41.5209 188.592C40.5942 188.573 39.7423 188.126 38.9636 187.25C38.1851 186.373 37.841 185.474 37.9322 184.552C38.0234 183.63 38.5466 182.747 39.4989 181.901C40.4516 181.054 41.3883 180.643 42.3094 180.668C43.2295 180.692 44.0811 181.145 44.862 182.024C45.6427 182.903 45.9885 183.801 45.8952 184.715C45.8031 185.631 45.2815 186.51 44.3317 187.354ZM40.622 183.178C39.982 183.747 39.6093 184.296 39.4994 184.826C39.3921 185.356 39.5532 185.863 39.9817 186.345C40.842 187.314 41.9154 187.225 43.2019 186.082C44.4912 184.937 44.7079 183.885 43.8522 182.921C43.4226 182.438 42.9368 182.219 42.3937 182.262C41.8519 182.306 41.2604 182.611 40.622 183.178ZM42.9852 189.686L43.4125 190.095C44.4783 189.712 45.4667 189.258 46.3763 188.731C47.2871 188.203 48.1981 187.566 49.1095 186.82L52.3319 189.904L47.9739 194.459L48.7112 195.164L46.2358 197.751L45.1049 196.669L46.6463 195.058L43.1823 191.744L41.6405 193.355L40.5097 192.273L42.9852 189.686ZM49.1063 188.687C48.473 189.186 47.7532 189.67 46.9483 190.136C46.142 190.602 45.3746 190.983 44.6454 191.274L46.8055 193.341L50.2296 189.762L49.1063 188.687ZM55.4532 194.316C54.9852 193.923 54.4768 193.795 53.9241 193.931C53.3731 194.068 52.8333 194.45 52.3062 195.078C51.2091 196.385 51.1501 197.451 52.1316 198.274C52.542 198.619 53.1278 198.935 53.8858 199.219L53.0105 200.262C52.3611 200.06 51.7395 199.709 51.1469 199.212C50.2941 198.496 49.8595 197.69 49.8422 196.794C49.8246 195.898 50.2225 194.965 51.0347 193.997C51.5457 193.388 52.1044 192.947 52.7111 192.675C53.3175 192.402 53.9316 192.318 54.552 192.421C55.1739 192.525 55.7632 192.813 56.3215 193.281C56.8909 193.759 57.3456 194.376 57.6899 195.134L56.4411 195.807C56.3093 195.519 56.1648 195.244 56.0085 194.98C55.8523 194.716 55.6669 194.495 55.4532 194.316ZM59.3621 205.347L57.8601 204.28L57.8428 199.509L55.5965 202.672L54.2738 201.732L58.7069 195.492L60.0295 196.431L57.8821 199.454L62.267 198.021L63.6757 199.021L59.2716 200.402L59.3621 205.347ZM64.345 208.556L64.8401 206.716L62.4736 205.236L61.0378 206.488L59.5545 205.56L65.9208 200.475L67.6026 201.527L65.8266 209.482L64.345 208.556ZM65.2333 205.356C65.6737 203.684 65.9238 202.738 65.9842 202.521C66.0442 202.303 66.0957 202.133 66.1392 202.013C65.8042 202.33 64.9381 203.091 63.5427 204.298L65.2333 205.356ZM70.5196 208.72L67.5796 210.504L65.9807 209.675L69.4622 207.688C69.1588 207.334 68.9896 206.942 68.9527 206.513C68.916 206.083 69.0108 205.647 69.2385 205.208C69.5619 204.584 70.0324 204.22 70.6478 204.113C71.263 204.005 71.9849 204.166 72.8129 204.595L75.0244 205.741L71.5012 212.537L70.0607 211.791L71.4126 209.183L70.5196 208.72ZM72.9719 206.175L72.2612 205.807C71.8886 205.613 71.5667 205.531 71.2932 205.558C71.0194 205.585 70.8013 205.754 70.6409 206.063C70.4845 206.365 70.4619 206.653 70.5698 206.93C70.6783 207.206 70.9362 207.45 71.3456 207.662L72.0198 208.012L72.9719 206.175ZM84.5006 214.082C84.0473 215.267 83.407 216.064 82.5764 216.475C81.7456 216.886 80.7831 216.882 79.6884 216.463C78.5937 216.044 77.8739 215.405 77.53 214.544C77.1856 213.683 77.2431 212.659 77.6985 211.469C78.1539 210.279 78.7956 209.482 79.6245 209.08C80.4524 208.677 81.4167 208.687 82.5149 209.107C83.6129 209.527 84.3332 210.164 84.6719 211.019C85.0123 211.875 84.9548 212.895 84.5006 214.082ZM79.284 212.085C78.978 212.885 78.9001 213.543 79.0467 214.065C79.1958 214.585 79.5726 214.96 80.1751 215.191C81.3849 215.654 82.2968 215.081 82.9119 213.474C83.5281 211.863 83.2354 210.829 82.0322 210.369C81.4281 210.137 80.896 210.167 80.4339 210.455C79.9731 210.744 79.589 211.288 79.284 212.085ZM87.7626 214.303L88.3758 214.486C89.3315 214.77 90.012 215.183 90.4186 215.727C90.8241 216.269 90.9226 216.897 90.7117 217.606C90.2568 219.135 89.0192 219.598 86.9998 218.998L84.8624 218.362L87.0452 211.025L91.6795 212.404L91.2973 213.688L88.218 212.772L87.7626 214.303ZM86.7965 217.55L87.319 217.706C87.8431 217.861 88.2514 217.892 88.547 217.795C88.8406 217.698 89.0398 217.479 89.1412 217.138C89.2415 216.801 89.1894 216.519 88.9871 216.297C88.7849 216.075 88.3819 215.874 87.7807 215.696L87.3835 215.577L86.7965 217.55ZM97.564 221.853L95.9896 221.483L97.4328 215.347L95.6083 214.918L95.3659 215.582C94.7471 217.268 94.2736 218.445 93.949 219.109C93.6219 219.774 93.2712 220.21 92.8942 220.425C92.5173 220.637 92.0673 220.678 91.5418 220.547C91.2566 220.48 91.0154 220.383 90.8153 220.257L91.1196 218.963C91.3003 219.077 91.4782 219.155 91.6505 219.196C91.8312 219.238 91.9933 219.19 92.1365 219.05C92.2815 218.909 92.4526 218.626 92.6499 218.201C92.8491 217.776 93.1445 217.073 93.5389 216.092C93.9333 215.109 94.2917 214.178 94.6131 213.296L99.3163 214.402L97.564 221.853ZM104.357 223.042L104.067 221.159L101.305 220.76L100.496 222.485L98.7649 222.235L102.537 215.013L104.5 215.296L106.087 223.291L104.357 223.042ZM103.878 219.756C103.606 218.048 103.453 217.082 103.42 216.859C103.388 216.636 103.366 216.46 103.357 216.332C103.179 216.757 102.694 217.803 101.904 219.471L103.878 219.756ZM111.261 217.419C110.653 217.352 110.159 217.526 109.774 217.946C109.392 218.365 109.154 218.983 109.063 219.798C108.874 221.494 109.415 222.413 110.688 222.555C111.221 222.614 111.884 222.553 112.672 222.37L112.522 223.723C111.869 223.915 111.157 223.966 110.388 223.881C109.282 223.758 108.474 223.328 107.962 222.591C107.451 221.855 107.266 220.858 107.406 219.602C107.494 218.812 107.715 218.135 108.069 217.572C108.423 217.01 108.887 216.599 109.461 216.341C110.036 216.084 110.686 215.996 111.41 216.077C112.149 216.159 112.87 216.421 113.576 216.861L112.909 218.113C112.64 217.947 112.368 217.798 112.091 217.665C111.815 217.531 111.538 217.45 111.261 217.419ZM117.352 224.149L115.73 224.097L115.929 217.797L113.852 217.731L113.894 216.381L119.67 216.563L119.628 217.913L117.551 217.848L117.352 224.149ZM127.151 223.958L125.536 224.04L125.368 220.743L122.341 220.897L122.509 224.194L120.889 224.277L120.5 216.632L122.12 216.549L122.273 219.547L125.299 219.393L125.147 216.395L126.761 216.313L127.151 223.958ZM134.015 223.28L133.273 221.526L130.497 221.816L130.136 223.686L128.396 223.868L130.284 215.942L132.257 215.736L135.754 223.099L134.015 223.28ZM132.746 220.212C132.064 218.623 131.679 217.724 131.593 217.515C131.506 217.307 131.442 217.141 131.403 217.019C131.334 217.476 131.119 218.608 130.763 220.419L132.746 220.212ZM138.915 219.562L137.764 222.803L136.001 223.171L137.444 219.431C136.984 219.348 136.606 219.151 136.305 218.841C136.005 218.532 135.804 218.134 135.703 217.649C135.559 216.962 135.694 216.382 136.103 215.91C136.511 215.438 137.173 215.106 138.086 214.916L140.524 214.407L142.088 221.9L140.5 222.232L139.899 219.356L138.915 219.562ZM139.207 216.04L138.424 216.203C138.012 216.289 137.711 216.429 137.516 216.623C137.321 216.817 137.259 217.085 137.33 217.426C137.4 217.759 137.564 217.996 137.823 218.143C138.081 218.288 138.435 218.315 138.887 218.22L139.63 218.065L139.207 216.04ZM148.94 213.535C148.356 213.714 147.972 214.071 147.786 214.609C147.601 215.146 147.629 215.807 147.869 216.591C148.371 218.222 149.233 218.851 150.457 218.474C150.97 218.317 151.554 217.998 152.204 217.515L152.604 218.817C152.082 219.252 151.449 219.583 150.709 219.81C149.645 220.137 148.733 220.064 147.971 219.592C147.209 219.119 146.642 218.278 146.271 217.071C146.038 216.311 145.971 215.602 146.072 214.945C146.173 214.288 146.436 213.726 146.86 213.262C147.285 212.796 147.847 212.458 148.543 212.243C149.254 212.025 150.019 211.979 150.842 212.102L150.729 213.516C150.415 213.47 150.106 213.442 149.799 213.43C149.493 213.417 149.206 213.453 148.94 213.535ZM160.187 216.42L158.674 216.992L156.444 211.096L153.81 212.092L156.041 217.988L154.523 218.562L151.815 211.403L157.478 209.26L160.187 216.42ZM166.816 209.152C167.375 210.29 167.524 211.303 167.26 212.191C166.995 213.079 166.337 213.781 165.285 214.298C164.232 214.814 163.274 214.907 162.41 214.573C161.545 214.239 160.833 213.5 160.272 212.356C159.71 211.213 159.563 210.2 159.833 209.319C160.101 208.439 160.765 207.739 161.82 207.22C162.875 206.702 163.832 206.608 164.689 206.942C165.547 207.274 166.256 208.012 166.816 209.152ZM161.802 211.614C162.18 212.383 162.609 212.888 163.091 213.136C163.573 213.38 164.105 213.36 164.684 213.075C165.847 212.504 166.048 211.446 165.289 209.902C164.529 208.354 163.572 207.865 162.415 208.432C161.835 208.718 161.495 209.128 161.391 209.662C161.289 210.197 161.426 210.848 161.802 211.614ZM169.612 207.428L170.079 207.168C170.515 206.924 170.793 206.656 170.912 206.362C171.033 206.07 171 205.758 170.816 205.429C170.631 205.097 170.404 204.903 170.134 204.845C169.865 204.788 169.536 204.867 169.148 205.084L168.503 205.444L169.612 207.428ZM172.219 204.58C172.621 205.299 172.704 205.976 172.467 206.607C172.23 207.239 171.697 207.786 170.868 208.249L170.26 208.589L171.588 210.966L170.172 211.757L166.439 205.074L168.573 203.882C169.384 203.429 170.098 203.26 170.715 203.372C171.331 203.486 171.833 203.889 172.219 204.58ZM178.737 206.675L177.364 207.539L174.007 202.204L172.248 203.311L171.528 202.167L176.419 199.09L177.138 200.233L175.38 201.34L178.737 206.675ZM177.031 198.612L178.193 197.727L180.434 200.668L181.018 201.467L181.658 202.395L181.684 202.375L180.967 195.612L182.512 194.434L187.153 200.522L186.004 201.398L183.775 198.475C183.476 198.083 183.06 197.484 182.523 196.677L182.491 196.702L183.225 203.516L181.672 204.7L177.031 198.612ZM183.834 193.314L185.634 191.754C186.455 191.043 187.152 190.643 187.724 190.556C188.298 190.468 188.805 190.679 189.247 191.19C189.546 191.535 189.711 191.889 189.741 192.251C189.771 192.613 189.671 192.934 189.44 193.211L189.474 193.251C189.912 193.016 190.309 192.939 190.665 193.023C191.023 193.105 191.362 193.334 191.684 193.705C192.141 194.233 192.305 194.81 192.181 195.436C192.056 196.061 191.666 196.657 191.011 197.224L188.847 199.1L183.834 193.314ZM187.047 194.545L187.76 193.927C188.092 193.639 188.288 193.38 188.349 193.147C188.408 192.914 188.334 192.68 188.129 192.443C187.936 192.219 187.718 192.132 187.471 192.175C187.226 192.219 186.927 192.393 186.577 192.697L185.931 193.257L187.047 194.545ZM187.889 195.517L189.195 197.024L189.995 196.332C190.334 196.038 190.526 195.758 190.574 195.489C190.625 195.22 190.533 194.953 190.303 194.687C189.887 194.207 189.336 194.264 188.65 194.858L187.889 195.517ZM198.725 189.548L197.616 190.725L195.213 188.46L193.134 190.665L195.537 192.93L194.424 194.11L188.854 188.859L189.967 187.679L192.151 189.738L194.23 187.533L192.046 185.474L193.155 184.297L198.725 189.548ZM203.272 184.36L201.533 183.581L199.698 185.685L200.708 187.3L199.558 188.618L195.541 181.53L196.844 180.035L204.42 183.043L203.272 184.36ZM200.252 182.978C198.67 182.28 197.776 181.883 197.571 181.79C197.365 181.696 197.205 181.619 197.094 181.557C197.354 181.937 197.969 182.913 198.941 184.481L200.252 182.978ZM204.144 178.183L205.53 181.331L204.499 182.808L202.983 179.097C202.593 179.351 202.182 179.468 201.751 179.449C201.32 179.429 200.901 179.278 200.495 178.995C199.919 178.593 199.619 178.079 199.593 177.455C199.566 176.831 199.82 176.136 200.354 175.371L201.779 173.328L208.057 177.708L207.129 179.039L204.719 177.358L204.144 178.183ZM201.941 175.42L201.483 176.076C201.243 176.421 201.119 176.729 201.11 177.004C201.102 177.279 201.24 177.517 201.526 177.716C201.804 177.911 202.087 177.971 202.376 177.9C202.664 177.828 202.94 177.604 203.203 177.227L203.638 176.604L201.941 175.42ZM212.773 167.294L213.934 165.221L208.433 162.141L209.223 160.73L215.902 164.47L211.2 172.868L204.52 169.129L205.313 167.713L210.814 170.793L211.975 168.719L206.474 165.639L207.272 164.214L212.773 167.294ZM219.14 156.645L218.409 158.336L213.746 159.343L217.306 160.884L216.661 162.373L209.636 159.333L210.281 157.844L213.683 159.316L211.371 155.325L212.057 153.739L214.322 157.76L219.14 156.645ZM218.073 147.733C219.284 148.112 220.12 148.702 220.582 149.505C221.044 150.308 221.099 151.269 220.749 152.388C220.399 153.507 219.806 154.265 218.969 154.662C218.131 155.059 217.105 155.066 215.889 154.685C214.673 154.305 213.838 153.714 213.385 152.912C212.931 152.111 212.881 151.148 213.231 150.025C213.583 148.903 214.174 148.145 215.006 147.753C215.838 147.36 216.86 147.354 218.073 147.733ZM216.405 153.065C217.222 153.32 217.885 153.357 218.396 153.178C218.905 152.997 219.257 152.597 219.449 151.981C219.836 150.745 219.207 149.871 217.565 149.357C215.919 148.842 214.905 149.199 214.521 150.429C214.328 151.046 214.391 151.575 214.707 152.019C215.024 152.46 215.59 152.81 216.405 153.065ZM223.752 141.222L223.353 142.789L217.244 141.234L216.781 143.051L217.441 143.305C219.116 143.955 220.284 144.45 220.942 144.787C221.6 145.126 222.031 145.484 222.238 145.865C222.444 146.246 222.476 146.696 222.336 147.219C222.264 147.504 222.162 147.743 222.032 147.941L220.744 147.613C220.861 147.434 220.943 147.258 220.987 147.086C221.032 146.906 220.987 146.744 220.849 146.598C220.712 146.45 220.432 146.274 220.01 146.069C219.589 145.862 218.892 145.554 217.918 145.141C216.942 144.729 216.018 144.354 215.141 144.016L216.333 139.334L223.752 141.222ZM224.936 134.425L223.052 134.708L222.643 137.469L224.364 138.284L224.108 140.014L216.9 136.215L217.191 134.253L225.193 132.697L224.936 134.425ZM221.648 134.892C219.94 135.157 218.973 135.306 218.75 135.338C218.526 135.37 218.35 135.391 218.222 135.399C218.647 135.579 219.691 136.069 221.356 136.864L221.648 134.892Z" fill="#004394"/>
<path fill-rule="evenodd" clip-rule="evenodd" d="M124.29 106.876C122.527 99.9804 120.763 93.0848 119 86.1893C148.208 54.3505 191.523 77.6755 220.732 45.8367C222.495 52.7321 224.258 59.6277 226.022 66.5232C196.813 98.362 153.498 75.037 124.29 106.876Z" fill="white"/>
<path fill-rule="evenodd" clip-rule="evenodd" d="M129.58 127.562C127.817 120.667 126.053 113.771 124.29 106.876C153.498 75.037 196.813 98.362 226.022 66.5232C227.785 73.4187 229.548 80.3143 231.312 87.2098C202.103 119.049 158.788 95.7236 129.58 127.562Z" fill="#00509E"/>
<path fill-rule="evenodd" clip-rule="evenodd" d="M134.87 148.249C133.107 141.353 131.343 134.458 129.58 127.562C158.788 95.7235 202.103 119.049 231.312 87.2097C233.075 94.1052 234.839 101.001 236.602 107.896C207.393 139.735 164.079 116.41 134.87 148.249Z" fill="#E64446"/>
<path fill-rule="evenodd" clip-rule="evenodd" d="M225.302 67.2806L225.207 66.9044L220.243 47.4932C205.594 62.593 187.739 64.692 169.884 66.7878C152.066 68.8795 134.249 70.9737 119.947 86.323L124.993 106.136C124.758 106.382 124.523 106.622 124.29 106.876L119 86.1891C148.208 54.3504 191.523 77.6755 220.732 45.8367L226.022 66.5233C225.784 66.7827 225.542 67.0286 225.302 67.2806Z" fill="#004394"/>
<path fill-rule="evenodd" clip-rule="evenodd" d="M113.71 106.876C115.473 99.9804 117.237 93.0848 119 86.1893C89.7917 54.3505 46.4767 77.6755 17.2683 45.8367C15.505 52.7321 13.7416 59.6277 11.9783 66.5232C41.1866 98.362 84.5015 75.037 113.71 106.876Z" fill="white"/>
<path fill-rule="evenodd" clip-rule="evenodd" d="M108.42 127.562C110.183 120.667 111.947 113.771 113.71 106.876C84.5015 75.037 41.1866 98.362 11.9782 66.5232C10.2149 73.4187 8.45146 80.3143 6.68811 87.2098C35.8965 119.049 79.2114 95.7236 108.42 127.562Z" fill="#00509E"/>
<path fill-rule="evenodd" clip-rule="evenodd" d="M103.13 148.249C104.893 141.353 106.656 134.458 108.42 127.562C79.2115 95.7235 35.8965 119.049 6.68813 87.2097C4.92477 94.1052 3.16142 101.001 1.39807 107.896C30.6064 139.735 73.9213 116.41 103.13 148.249Z" fill="#E64446"/>
<path fill-rule="evenodd" clip-rule="evenodd" d="M12.6975 67.2806L12.7934 66.9044L17.7572 47.4932C32.4057 62.593 50.2612 64.692 68.1164 66.7878C85.9337 68.8795 103.751 70.9737 118.053 86.323L113.007 106.136C113.242 106.382 113.477 106.622 113.71 106.876L119 86.1891C89.7916 54.3504 46.4766 77.6755 17.2682 45.8367L11.9783 66.5233C12.2161 66.7827 12.4576 67.0286 12.6975 67.2806Z" fill="#004394"/>
<path fill-rule="evenodd" clip-rule="evenodd" d="M111.378 103.216C111.165 105.408 110.817 108.954 110.825 111.077C110.833 112.941 111.821 111.951 111.154 114.578C110.944 115.407 110.617 117.245 110.385 117.764C109.87 118.912 109.074 118.675 108.574 120.013C108.3 120.744 107.99 122.455 107.787 123.324C102.963 143.997 106.412 135.663 107.129 142.89C107.365 145.272 108.018 146.72 108.054 149.529C108.085 151.868 108.112 154.607 108.041 156.937C107.89 161.903 106.595 167.448 107.171 172.18C107.487 174.782 107.413 176.508 107.929 178.936L109.674 188.614C109.512 189.984 109.721 188.848 109.291 189.415C109.258 189.458 109.203 189.494 109.17 189.537C109.138 189.58 109.085 189.619 109.055 189.663C109.026 189.708 108.981 189.755 108.957 189.802C108.932 189.85 108.9 189.907 108.883 189.958C108.63 190.685 109.023 190.944 109.127 191.542C109.281 192.435 109.005 192.592 109.18 193.402C109.341 194.148 109.623 193.732 109.545 194.74C109.43 196.212 109.203 195.119 109.781 196.227C110.342 197.301 110.15 200.564 109.761 201.666L108.067 205.502C106.256 208.275 106.135 207.206 105.948 209.678C104.857 212.646 115.921 213.572 117.192 208.75C117.598 206.812 117.877 205.878 117.73 205.492C117.336 204.568 118.939 203.027 119.068 201.939C120.024 198.265 117.393 198.696 117.396 196.582L117.239 191.647L117.512 189.917C116.145 188.626 116.448 189.054 116.897 187.095C117.587 184.09 117.898 179.435 118.606 176.041C119.802 170.311 118.544 166.575 117.732 161.516C117.511 160.137 119.398 153.759 119.985 151.27C120.462 149.245 120.329 147.19 121.292 144.04C121.711 142.667 122.359 142.288 122.702 141.398L124.019 134.438C124.189 133.122 124.223 131.798 124.833 130.83C125.48 129.802 126.735 129.928 127.331 130.933C128.24 132.463 127.743 135.932 128.127 138.112C128.227 138.677 128.389 139.246 128.532 139.838L128.563 141.716C128.808 142.637 129.411 143.085 129.68 144.495C130.296 147.73 129.942 149.759 130.197 151.823C130.512 154.362 131.698 160.906 131.329 162.253C129.601 167.493 128.158 171.162 129.067 176.945C129.605 180.369 129.684 185.035 129.393 187.773C128.45 190.397 129.557 189.962 128.279 191.342L128.666 193.049L128.837 197.984C127.86 201.519 127.177 202.284 129.163 205.52C129.603 206.522 130.792 207.783 130.685 208.782C130.657 209.194 131.15 209.975 133.202 210.226C136.428 210.021 139.904 209.37 141.005 208.545C141.016 207.9 141.118 207.223 138.578 205.099L136.605 202.339C136.143 201.265 135.924 198.233 136.412 197.123C136.916 195.98 136.762 197.086 136.549 195.624C136.404 194.624 136.712 195.02 136.824 194.265C136.945 193.446 136.659 193.307 136.754 192.406C136.817 191.802 137.193 191.517 136.892 190.809C136.519 189.933 136.709 190.865 136.398 189.191L139.586 180.368C140.223 177.969 140.234 176.241 140.68 173.658C141.491 168.96 140.474 163.358 141.458 158.748C141.639 156.424 141.963 153.705 142.246 151.383C142.586 148.594 143.391 147.225 143.883 144.883C144.541 141.756 144.022 142.306 144.559 141.408C144.526 141.038 145.72 140.004 145.669 139.565L145.031 131.37C144.992 127.546 143.547 123.349 143.005 120.065C142.774 118.664 142.784 117.42 142.501 116.079C142.041 113.892 141.803 114.555 142.265 112.314C142.608 110.65 142.19 109.677 142.204 108.172L142.348 103.687C142.287 102.173 142.921 101.919 142.602 100.337C142.252 98.5947 142.486 98.492 142.903 96.9052C143.553 94.4382 142.294 92.9423 143.457 90.0036C144.305 87.8608 144.991 86.1753 145.467 83.7347C146.149 80.237 146.689 80.1737 146.879 78.9691C146.944 78.5568 146.859 78.6032 146.99 78.1569C147.006 78.1026 147.024 78.04 147.044 77.9924L147.397 77.5621C148.511 72.5461 146.017 74.6753 152.048 70.1616C155.217 67.7895 158.717 66.9833 159.421 66.1407C160.715 64.5913 161.494 64.7932 163.875 62.715C165.48 61.7281 166.542 60.6738 168.627 59.7623C169.212 59.3699 171.757 58.3372 172.382 58.1319C175.265 55.7218 177.379 54.702 180.084 50.6227C181.119 49.0628 182.212 47.6571 183.382 46.0763C185.607 43.07 185.108 44.014 187.005 41.9208C189.194 38.7997 189.511 41.7129 194.014 37.2294C196.528 34.7271 199.107 34.8548 200.418 34.0926C201.674 33.3623 201.376 32.7874 199.927 32.8841C198.006 33.0124 196.824 34.2133 194.623 34.0679C194.73 32.9502 194.409 33.5109 196.104 32.2676C196.714 31.8201 197.204 31.5352 197.797 31.1027C198.583 30.5291 199.383 30.2187 199.957 29.5808C201.195 28.2069 200.614 27.2311 198.971 28.3037C198.842 28.388 198.696 28.4836 198.515 28.589C196.808 29.5813 193.949 31.6528 193.038 31.7257C193.285 30.2864 195.235 29.3356 196.166 28.5773C197.453 27.5297 198.483 27.1984 198.934 26.7196C199.678 25.93 198.989 25.0197 197.578 25.568C196.961 25.8076 196.249 26.2444 195.378 26.7492C194.891 27.0318 194.795 27.2107 194.291 27.5772C193.677 27.9928 193.301 28.2572 192.749 28.7627C192.308 29.1661 191.976 29.7295 191.152 29.7973C190.56 28.5376 193.323 25.8105 194.32 23.5478C194.988 22.0326 194.421 21.7459 193.111 22.614C190.684 24.2222 188.916 29.8803 186.692 30.0396C184.208 26.9731 186.538 23.9976 183.766 23.563C183.006 23.4438 183.554 25.1364 183.543 25.835C183.53 26.6029 183.428 27.2175 183.545 28.0163C184.106 31.8232 183.636 29.4785 183.751 32.0668C183.923 35.9534 185.784 35.5343 182.535 38.2957C179.281 41.0605 175.548 43.4078 171.854 45.5737C171.306 46.0578 170.86 46.1273 170.309 46.535C169.919 46.8235 169.408 47.2618 168.982 47.6456C165.306 50.9563 166.147 51.1262 160.197 53.8436C159.095 54.3476 158.134 54.8907 156.95 55.6407C154.061 57.4702 154.829 56.0299 153.148 56.8434C150.858 57.9518 148.248 58.4924 145.929 59.4013C144.516 59.8772 144.03 60.0145 142.93 60.6805C141.047 61.8204 138.739 60.9634 136.436 59.9088C133.706 58.6596 133.471 59.7354 133.19 58.7592C131.858 58.4078 132.23 55.6528 132.426 54.1801C132.613 52.7821 132.954 52.9142 133.183 51.9758C133.377 51.184 133.275 50.2545 133.438 49.3571C134.571 48.3809 134.11 49.5565 134.64 47.9437C135.168 46.3374 135.321 44.8834 134.668 43.5691C134.121 42.4666 134.665 42.5302 134.385 41.3191C134.119 40.1693 134.173 40.2863 134.185 38.9336C134.198 37.5747 134.027 37.9516 133.607 36.9517C132.749 34.9113 133.507 35.6234 130.983 34.239C129.117 33.2151 130.392 32.7468 127.424 32.3831C124.624 32.0397 125.628 31.4975 123.121 32.7239C121.775 33.3822 120.744 33.4928 119.529 34.3715C119.145 34.6493 117.135 37.0417 117.042 37.2475C116.691 38.0252 116.226 40.9775 116.285 41.9518C116.337 42.8215 116.694 43.3895 116.772 44.067C116.922 45.3633 116.376 45.0795 116.446 46.3877C116.496 47.324 117.564 49.3807 118.115 49.9763C118.821 50.7389 119.991 50.2463 120.291 53.1005C121.134 61.1331 119.001 59.4745 117.254 60.522C115.948 61.3053 115.3 61.7272 113.465 61.9625C111.187 62.2548 110.705 61.7188 108.981 61.2963C107.685 60.8089 106.968 60.3582 105.588 59.9222C100.006 58.1591 100.388 57.5159 99.48 57.1987C98.3373 56.7996 97.597 57.566 96.5644 56.3649C86.1839 54.6567 86.568 52.0964 80.1493 50.0845C77.1318 49.1384 74.2354 48.5534 71.0982 47.6475C69.602 47.2155 64.066 45.1213 63.1026 44.4322C62.9136 40.6133 63.256 42.0238 61.8373 38.886C61.1301 37.322 61.3715 35.8591 60.6265 34.8793C60.4452 34.6408 59.8956 34.065 59.6432 33.8921C58.8472 33.3473 59.6809 33.0977 58.4557 32.8843C57.7409 33.771 58.1997 34.8075 58.687 35.5849C59.4313 36.7729 59.3046 36.9349 59.1292 38.5304C55.6413 38.1039 54.645 32.3901 52.0607 31.5085C51.2406 31.2288 51.0885 31.4389 51.1839 32.2868C51.2437 32.8166 51.5072 33.1834 51.779 33.5795C52.4057 34.4929 54.6829 37.66 54.7587 38.6043C53.0585 38.7156 51.0924 34.7096 48.704 33.6338C47.5923 33.133 46.9581 33.2037 47.5777 34.5205C48.5797 36.65 52.3774 38.7491 52.8618 40.5415C51.9452 40.8946 50.9341 39.8187 49.5208 38.7616C49.2123 38.5309 48.0144 37.3529 47.1113 36.8865C46.1071 36.3681 45.805 37.146 46.16 37.9522C46.5429 38.8195 49.2213 40.7784 50.0687 41.3983C50.7328 41.8843 51.3425 42.167 51.4199 42.9094C50.1143 43.4272 47.9411 41.1762 46.428 40.6447C45.5558 40.3383 45.1054 40.715 45.7351 41.4177C46.2003 41.9364 47.8875 43.107 48.4797 43.4765L55.4241 47.589C56.9797 48.3166 58.9539 49.1416 60.5155 49.948C62.2227 50.8301 64.2537 51.1139 65.381 52.5598C66.0998 52.6558 71.4822 56.8878 72.9314 57.82C76.9121 60.3806 81.5115 60.904 82.1365 61.5444C84.0267 61.7694 86.0526 62.619 87.5702 63.3647L92.7048 65.7326C94.1429 66.1363 92.6826 66.6913 94.5518 67.304C95.7308 67.6904 96.465 67.6086 97.6222 68.1692C100.85 69.7327 103.752 71.8034 106.212 74.582C108.135 76.7538 107.975 77.1755 108.149 80.2279C109.324 80.7548 109.657 82.9599 110.092 84.3768C111.505 88.9801 113.581 90.5985 111.655 93.7811C110.548 95.6101 112.289 95.978 111.588 98.7947L111.378 103.216Z" fill="#004394"/>
<path fill-rule="evenodd" clip-rule="evenodd" d="M102.266 93.0719L102.491 90.3511C102.727 87.9089 101.446 86.8071 103.471 84.7255C103.907 84.2771 104.178 83.8659 104.469 83.4383C105.402 82.0661 106.369 82.7094 107.369 81.7391C109.34 79.8271 111.815 79.898 114.223 80.9148C115.845 81.5994 118.279 84.0369 118.698 85.5956C119.337 87.9742 119.489 89.1325 119.476 91.6462C119.47 92.799 119.215 92.6691 118.773 93.2742C118.087 94.2141 118.279 95.2727 117.22 96.1777C116.456 96.8308 116.761 96.6307 116.433 97.5456C115.949 98.8997 114.686 99.8587 114.544 100.267C114.424 100.614 114.453 101.025 114.463 101.392L114.524 102.085C114.696 102.803 115.327 102.723 115.966 102.81C116.604 102.896 116.644 103.122 117.406 103.141C118.159 103.16 119.716 102.773 120.294 102.423C120.534 102.278 121.014 101.843 121.267 101.661C121.62 101.409 122.038 101.16 122.402 100.941C124.59 99.6215 124.244 100.633 125.007 100.577C126.515 99.8388 128.743 97.887 130.036 96.6659C131.627 95.1616 132.867 93.7009 134.57 92.3137C137.003 90.3325 139.966 88.8412 142.216 86.6248C144.949 83.9326 142.485 82.088 144.829 80.7749C145.596 80.3454 146.814 79.3248 147.373 79.4611L148.763 80.4919C149.119 80.9874 148.757 80.8809 149.265 81.289C149.658 81.6036 149.677 81.3389 149.943 81.9019C150.107 82.2473 150.063 82.3912 150.254 82.7451C150.547 83.2907 150.639 82.9568 150.556 83.7235C150.486 84.365 150.032 84.9877 149.64 85.4513C148.841 86.3982 147.873 86.9182 146.655 87.4849C144.755 88.3693 141.093 93.8901 139.724 95.7439C136.811 99.6892 131.838 103.607 128.24 106.913C127.725 107.386 127.195 107.596 127.221 108.336C127.28 110.028 125.889 109.94 124.822 110.95C121.81 113.803 120.145 126.813 121.52 133.112C121.86 134.669 122.411 135.657 122.802 137.282C123.37 139.642 123.289 142.161 123.701 144.546C124.008 146.323 124.633 147.415 122.64 148.204C122.536 150.546 122.672 153.868 122.808 156.243C123.101 161.369 122.27 166.648 122.829 171.719C122.954 172.86 123.001 174.149 123.134 175.367C123.281 176.705 123.81 177.642 123.733 178.953C123.622 180.974 123.199 185.513 123.368 187.269C123.544 189.11 123.532 192.436 123.236 194.258C123.085 195.193 122.508 196.196 122.439 197.027C122.363 197.953 122.666 198.472 122.4 199.299L122.307 200.021C122.182 200.972 121.712 200.249 122.449 202.73C122.997 204.574 123.822 206.311 124.085 208.254C124.364 210.322 120.724 210.331 119.129 210.331C112.381 210.331 116.611 207.373 115.755 203.151L115.401 201.831L115.697 200.451L115.675 199.467C115.755 197.89 116.136 196.938 116.143 194.438C116.152 191.266 115.849 188.137 115.768 184.964C115.691 181.93 115.691 178.343 114.867 175.786C113.242 170.75 112.926 165.21 111.954 160.016C111.858 159.499 111.92 159.354 111.53 159.238C111.101 160.734 111.266 167.814 111.237 169.921C111.211 171.781 111.145 173.484 111.027 175.268C110.88 177.491 110.616 179.55 110.611 181.678C110.6 187.186 109.638 193.452 110.273 198.748C110.523 200.829 109.895 202.304 111.174 204.417C113.451 208.18 106.856 206.941 105.424 207.69C103.681 208.602 102.227 209.116 99.7729 209.116C98.106 209.116 95.7393 208.632 94.6783 207.628C94.4234 206.514 95.2408 205.627 95.9847 205.276L98.5277 203.952C99.3365 203.404 99.9112 202.689 100.512 202.199C101.307 201.551 102.18 201.326 102.421 200.116L103.724 198.814C103.706 198.095 103.593 198.014 103.509 197.436C103.43 196.89 103.505 196.412 103.482 195.871C103.443 194.911 103.073 194.124 102.961 193.271C102.719 191.429 103.301 189.237 103.301 187.269C103.301 185.651 102.939 184.374 102.876 182.975C102.803 181.321 102.663 179.941 102.662 178.237C102.667 175.589 103.068 172.937 102.514 170.436C102.015 168.181 101.612 165.857 101.15 163.482C100.232 158.771 99.6663 153.576 99.4666 148.704C97.9073 147.729 97.9191 146.562 97.8773 144.687C97.6639 135.096 99.4886 134.879 99.4876 128.199C99.4868 122.428 98.1121 117.092 97.908 111.422C97.8524 109.876 97.2302 109.458 96.0321 108.704C92.8801 106.72 94.4625 106.347 92.9618 104.901L89.5851 101.246C86.6904 97.857 84.4872 94.4345 82.3052 90.1726C81.7979 89.182 79.7289 84.7428 79.15 84.1711C78.4922 83.5215 77.2933 83.1718 76.4941 82.2244C75.9821 81.6177 75.3027 80.6496 75.6486 79.8489C75.7956 79.509 75.749 79.7338 75.8739 79.486C76.0415 79.1532 75.9485 79.2819 76.0612 78.9388C76.3799 77.9685 76.7501 78.3389 77.1351 77.7585C77.3889 77.3759 77.2083 77.3386 77.5804 77.0356C77.8911 76.7826 77.9235 76.915 78.2859 76.602C79.2768 75.746 79.5611 76.4244 80.3952 77.0406C80.702 77.2671 80.7677 77.257 81.1412 77.447C83.4971 78.6461 81.3912 80.1483 83.6697 84.0762C84.7535 85.9447 86.1496 87.7277 87.427 89.5133C89.5117 92.427 90.6303 94.8898 93.5467 97.2961C94.0606 97.72 95.7069 99.0609 96.1665 99.2621C96.992 99.6235 97.1009 98.7412 99.2232 100.505C102.583 103.298 101.46 102.19 104.051 102.3C105.077 102.344 104.82 102.482 105.564 101.732C106.59 100.699 106.899 99.1611 105.956 98.6592C105.158 98.2352 104.749 98.8575 104.387 97.9316L103.606 96.4263C103.414 95.7578 103.623 94.9763 103.436 94.2728C103.215 93.4365 102.904 93.4783 102.266 93.0719Z" fill="#F7C700"/>
</svg>
