<svg width="213" height="191" viewBox="0 0 213 191" fill="none" xmlns="http://www.w3.org/2000/svg">
<path fill-rule="evenodd" clip-rule="evenodd" d="M108.927 3.77917C133.311 3.7792 156.695 13.4655 173.937 30.7071C191.179 47.9488 200.865 71.3335 200.865 95.7169C200.865 113.901 195.473 131.676 185.371 146.795C175.268 161.914 160.91 173.698 144.11 180.656C127.311 187.615 108.825 189.436 90.991 185.888C73.1568 182.341 56.775 173.585 43.9173 160.727C31.0595 147.869 22.3033 131.487 18.7559 113.653C15.2084 95.819 17.0291 77.3333 23.9877 60.5339C30.9462 43.7344 42.7301 29.3757 57.8493 19.2735C72.9684 9.17121 90.7436 3.77916 108.927 3.77917Z" fill="white"/>
<path fill-rule="evenodd" clip-rule="evenodd" d="M108.927 18.1982C119.107 18.1982 129.187 20.2033 138.592 24.099C147.997 27.9947 156.543 33.7047 163.741 40.9029C170.939 48.1012 176.649 56.6468 180.545 66.0518C184.44 75.4568 186.446 85.537 186.446 95.7169C186.446 111.049 181.899 126.036 173.381 138.784C164.863 151.532 152.757 161.468 138.592 167.335C124.427 173.202 108.841 174.737 93.8037 171.746C78.7666 168.755 64.9541 161.372 54.1129 150.531C43.2717 139.69 35.8888 125.877 32.8977 110.84C29.9067 95.8029 31.4418 80.2165 37.309 66.0518C43.1762 51.8871 53.112 39.7803 65.8598 31.2625C78.6077 22.7446 93.5951 18.1982 108.927 18.1982Z" fill="white"/>
<path fill-rule="evenodd" clip-rule="evenodd" d="M108.927 32.6173C125.662 32.6173 141.712 39.2653 153.545 51.0987C165.378 62.9322 172.026 78.9818 172.026 95.7169C172.027 108.197 168.326 120.396 161.392 130.773C154.459 141.15 144.604 149.238 133.074 154.013C121.544 158.789 108.857 160.039 96.6168 157.604C84.3766 155.169 73.1333 149.16 64.3087 140.335C55.484 131.511 49.4743 120.267 47.0396 108.027C44.6049 95.787 45.8545 83.0998 50.6303 71.5698C55.4062 60.0398 63.4939 50.185 73.8705 43.2515C84.2472 36.318 96.4469 32.6173 108.927 32.6173Z" fill="white"/>
<path fill-rule="evenodd" clip-rule="evenodd" d="M108.927 47.0363C121.838 47.0363 134.22 52.1651 143.349 61.2945C152.478 70.4239 157.607 82.806 157.607 95.7169C157.607 105.345 154.752 114.757 149.403 122.762C144.054 130.768 136.451 137.007 127.556 140.692C118.661 144.376 108.873 145.34 99.4296 143.462C89.9865 141.584 81.3124 136.947 74.5043 130.139C67.6962 123.331 63.0598 114.657 61.1815 105.214C59.3031 95.7709 60.2672 85.9828 63.9517 77.0876C67.6362 68.1924 73.8757 60.5896 81.8812 55.2405C89.8867 49.8914 99.2986 47.0363 108.927 47.0363Z" fill="white"/>
<path d="M108.927 3.77917C133.311 3.7792 156.695 13.4655 173.937 30.7071C191.179 47.9488 200.865 71.3335 200.865 95.7169C200.865 113.901 195.473 131.676 185.371 146.795C175.268 161.914 160.91 173.698 144.11 180.656C127.311 187.615 108.825 189.436 90.991 185.888C73.1568 182.341 56.775 173.585 43.9173 160.727C31.0595 147.869 22.3033 131.487 18.7559 113.653C15.2084 95.819 17.0291 77.3333 23.9877 60.5339C30.9462 43.7344 42.7301 29.3757 57.8493 19.2735C72.9684 9.17121 90.7436 3.77916 108.927 3.77917Z" stroke="white" stroke-width="5.6693"/>
<path fill-rule="evenodd" clip-rule="evenodd" d="M93.0938 181.865C93.8939 182.369 95.448 182.203 96.3185 181.795C97.8054 181.098 98.0218 177.233 97.9159 175.749C97.8092 174.254 97.2516 174.109 97.4554 172.567C97.8072 169.906 97.1586 169.883 98.778 166.129C102.994 156.356 103.716 159.338 104.596 148.849C104.894 145.289 105.16 145.837 106.34 142.841C107.378 140.205 105.443 140.627 107.582 136.776L105.925 131.998C103.379 132.055 104.05 133.38 103.152 135.675C102.565 137.178 101.616 139.02 101.14 140.435C100.494 142.354 100.462 146.986 97.9411 150.599C98.4473 152.38 97.7647 152.764 97.2561 154.233C96.7622 155.66 97.1113 157.352 97.1479 158.843C97.2479 162.892 96.5311 163.152 95.1326 166.446C94.0408 169.018 93.4959 173.903 94.4801 176.557C95.0433 178.075 93.7061 181.104 93.0938 181.865Z" fill="white"/>
<path fill-rule="evenodd" clip-rule="evenodd" d="M98.48 87.3276C96.6859 79.9576 94.8918 72.5875 93.0977 65.2174C122.815 31.1875 166.885 56.1177 196.603 22.0878C198.397 29.4578 200.191 36.8279 201.985 44.1979C172.268 78.2278 128.198 53.2976 98.48 87.3276Z" fill="white"/>
<path fill-rule="evenodd" clip-rule="evenodd" d="M103.862 109.438C102.068 102.068 100.274 94.6974 98.48 87.3274C128.198 53.2975 172.268 78.2277 201.985 44.1978C203.779 51.5678 205.574 58.938 207.368 66.308C177.65 100.338 133.58 75.4077 103.862 109.438Z" fill="white"/>
<path fill-rule="evenodd" clip-rule="evenodd" d="M109.245 131.548C107.451 124.178 105.656 116.808 103.862 109.438C133.58 75.408 177.65 100.338 207.368 66.3083C209.162 73.6783 210.956 81.0485 212.75 88.4185C183.032 122.448 138.962 97.5182 109.245 131.548Z" fill="white"/>
<path fill-rule="evenodd" clip-rule="evenodd" d="M201.254 45.0074L201.156 44.6053L196.105 23.8583C181.202 39.9972 163.035 42.2407 144.868 44.4808C126.74 46.7163 108.612 48.9547 94.0611 65.3603L99.1947 86.5366C98.9564 86.7999 98.7165 87.0567 98.4799 87.3275L93.0977 65.2173C122.815 31.1874 166.885 56.1177 196.603 22.0878L201.985 44.198C201.743 44.4753 201.497 44.7381 201.254 45.0074Z" fill="white"/>
<path fill-rule="evenodd" clip-rule="evenodd" d="M123.234 91.1263C125.154 83.3924 127.074 75.6582 128.993 67.9242C97.1954 32.2136 50.0403 58.375 18.2424 22.6644C16.3228 30.3984 14.4031 38.1325 12.4834 45.8665C44.2812 81.5771 91.4363 55.4157 123.234 91.1263Z" fill="white"/>
<path fill-rule="evenodd" clip-rule="evenodd" d="M117.475 114.328C119.395 106.594 121.315 98.8599 123.235 91.1259C91.4366 55.4154 44.2816 81.5768 12.4838 45.8662C10.5641 53.6002 8.64429 61.3344 6.72461 69.0684C38.5225 104.779 85.6776 78.6175 117.475 114.328Z" fill="white"/>
<path fill-rule="evenodd" clip-rule="evenodd" d="M111.716 137.531C113.636 129.797 115.556 122.063 117.475 114.329C85.6774 78.6181 38.5223 104.78 6.72438 69.069C4.8047 76.803 2.88502 84.5372 0.965332 92.2712C32.7631 127.982 79.9182 101.82 111.716 137.531Z" fill="white"/>
<path fill-rule="evenodd" clip-rule="evenodd" d="M13.2664 46.716L13.3708 46.2941L18.7747 24.5224C34.7218 41.4584 54.1603 43.8126 73.5985 46.1634C92.9955 48.5093 112.393 50.8583 127.962 68.0741L122.469 90.2962C122.724 90.5725 122.981 90.8421 123.234 91.1262L128.993 67.924C97.1954 32.2135 50.0403 58.375 18.2424 22.6644L12.4834 45.8666C12.7423 46.1576 13.0052 46.4334 13.2664 46.716Z" fill="white"/>
<path fill-rule="evenodd" clip-rule="evenodd" d="M91.8269 69.5821L92.0523 66.8464C92.29 64.3908 91.0023 63.283 93.0378 61.19C93.4763 60.7391 93.7491 60.3256 94.0413 59.8958C94.9792 58.516 95.9519 59.1628 96.9577 58.1872C98.9396 56.2647 101.428 56.336 103.849 57.3584C105.48 58.0468 107.927 60.4976 108.348 62.0649C108.991 64.4565 109.144 65.6211 109.131 68.1486C109.125 69.3077 108.868 69.1771 108.424 69.7856C107.734 70.7306 107.927 71.795 106.862 72.7049C106.094 73.3616 106.401 73.1605 106.071 74.0803C105.584 75.4419 104.315 76.4061 104.172 76.8163C104.051 77.1656 104.08 77.579 104.09 77.948L104.151 78.6449C104.324 79.3664 104.959 79.2863 105.601 79.3733C106.243 79.4601 106.283 79.687 107.049 79.7066C107.806 79.726 109.372 79.3361 109.953 78.9845C110.195 78.8384 110.677 78.4011 110.932 78.2186C111.286 77.9651 111.707 77.7142 112.072 77.4942C114.273 76.1676 113.925 77.1845 114.692 77.1284C116.209 76.3861 118.449 74.4237 119.748 73.1958C121.349 71.6833 122.595 70.2146 124.308 68.8198C126.754 66.8277 129.733 65.3282 131.995 63.0996C134.743 60.3927 132.265 58.538 134.622 57.2177C135.394 56.7858 136.618 55.7597 137.181 55.8967L138.578 56.9332C138.936 57.4314 138.572 57.3243 139.083 57.7347C139.478 58.051 139.497 57.7848 139.765 58.3509C139.93 58.6982 139.886 58.8429 140.077 59.1987C140.372 59.7473 140.464 59.4116 140.381 60.1825C140.311 60.8275 139.854 61.4536 139.46 61.9198C138.657 62.8719 137.683 63.3947 136.459 63.9645C134.548 64.8537 130.866 70.4048 129.49 72.2688C126.56 76.2357 121.56 80.1746 117.943 83.4991C117.425 83.9752 116.892 84.1861 116.918 84.9296C116.977 86.6311 115.579 86.5426 114.506 87.5585C111.478 90.4267 109.804 103.508 111.186 109.842C111.527 111.407 112.081 112.401 112.475 114.034C113.046 116.408 112.965 118.94 113.379 121.338C113.688 123.126 114.316 124.223 112.312 125.016C112.207 127.372 112.345 130.712 112.481 133.099C112.776 138.253 111.94 143.561 112.502 148.661C112.628 149.807 112.675 151.104 112.809 152.329C112.956 153.673 113.489 154.616 113.411 155.935C113.299 157.966 112.874 162.53 113.044 164.296C113.221 166.146 113.209 169.491 112.912 171.323C112.759 172.263 112.179 173.272 112.11 174.108C112.033 175.039 112.338 175.56 112.071 176.391L111.978 177.117C111.851 178.074 111.379 177.347 112.12 179.842C112.671 181.696 113.501 183.442 113.765 185.396C114.045 187.475 110.385 187.484 108.781 187.484C101.997 187.484 106.25 184.51 105.389 180.265L105.033 178.938L105.331 177.55L105.309 176.561C105.389 174.975 105.772 174.017 105.779 171.504C105.789 168.314 105.484 165.169 105.402 161.978C105.325 158.927 105.325 155.32 104.496 152.75C102.863 147.686 102.544 142.116 101.568 136.893C101.471 136.373 101.533 136.228 101.141 136.111C100.709 137.616 100.876 144.734 100.846 146.852C100.82 148.723 100.754 150.435 100.635 152.229C100.488 154.464 100.222 156.534 100.217 158.674C100.206 164.213 99.2384 170.512 99.8774 175.838C100.128 177.93 99.4975 179.413 100.783 181.537C103.072 185.321 96.442 184.075 95.002 184.829C93.2492 185.745 91.7871 186.262 89.3196 186.262C87.6435 186.262 85.2639 185.776 84.1971 184.767C83.9408 183.646 84.7626 182.755 85.5106 182.402L88.0676 181.07C88.8808 180.519 89.4587 179.8 90.0623 179.308C90.8622 178.656 91.7397 178.429 91.9824 177.213L93.2922 175.904C93.2742 175.181 93.1605 175.099 93.0763 174.519C92.9966 173.969 93.0721 173.489 93.0495 172.945C93.0094 171.98 92.6379 171.188 92.5251 170.33C92.2815 168.478 92.8667 166.274 92.8667 164.296C92.8667 162.668 92.5026 161.385 92.44 159.978C92.3661 158.315 92.2259 156.928 92.2247 155.214C92.2297 152.551 92.6327 149.885 92.0757 147.37C91.5737 145.103 91.1688 142.766 90.7038 140.379C89.7813 135.642 89.2124 130.418 89.0116 125.519C87.4438 124.539 87.4556 123.366 87.4137 121.48C87.1991 111.837 89.0337 111.618 89.0328 104.902C89.0319 99.0996 87.6497 93.734 87.4445 88.0324C87.3886 86.4783 86.7629 86.058 85.5583 85.2998C82.389 83.3052 83.9801 82.9301 82.4711 81.4759L79.0759 77.8012C76.1653 74.3934 73.9501 70.9522 71.7561 66.6669C71.246 65.6709 69.1657 61.2074 68.5836 60.6325C67.9223 59.9794 66.7168 59.6277 65.9132 58.6752C65.3984 58.0652 64.7153 57.0917 65.0631 56.2867C65.2108 55.9448 65.1641 56.1709 65.2896 55.9217C65.4581 55.5871 65.3646 55.7165 65.4779 55.3715C65.7983 54.396 66.1706 54.7683 66.5577 54.1848C66.8129 53.8001 66.6313 53.7625 67.0055 53.4579C67.3179 53.2035 67.3504 53.3366 67.7148 53.0219C68.7111 52.1612 68.997 52.8434 69.8357 53.4629C70.1442 53.6907 70.2103 53.6805 70.5858 53.8715C72.9545 55.0772 70.8371 56.5877 73.1281 60.5371C74.2179 62.4159 75.6217 64.2087 76.9061 66.004C79.0022 68.9337 80.1269 71.41 83.0593 73.8295C83.576 74.2558 85.2313 75.604 85.6934 75.8062C86.5234 76.1697 86.633 75.2825 88.7669 77.0561C92.1455 79.8642 91.0157 78.7498 93.6213 78.8613C94.653 78.9053 94.3945 79.044 95.1429 78.2898C96.1739 77.2509 96.4849 75.7047 95.5363 75.2001C94.7347 74.7738 94.3226 75.3995 93.9592 74.4685L93.1738 72.9549C92.9806 72.2827 93.1904 71.4969 93.0031 70.7896C92.7806 69.9487 92.4678 69.9908 91.8269 69.5821Z" fill="white"/>
<path fill-rule="evenodd" clip-rule="evenodd" d="M108.281 20.4552C128.398 20.4552 147.69 28.4464 161.914 42.6708C176.139 56.8951 184.13 76.1875 184.13 96.3038C184.13 111.305 179.682 125.97 171.347 138.443C163.013 150.916 151.167 160.638 137.307 166.379C123.448 172.12 108.197 173.622 93.484 170.695C78.7708 167.769 65.2559 160.545 54.6482 149.937C44.0406 139.329 36.8167 125.814 33.8901 111.101C30.9634 96.388 32.4655 81.1374 38.2063 67.2778C43.9471 53.4183 53.6688 41.5723 66.1421 33.238C78.6154 24.9036 93.28 20.4552 108.281 20.4552Z" fill="#D3D4E8"/>
<path fill-rule="evenodd" clip-rule="evenodd" d="M108.281 32.351C116.679 32.351 124.996 34.0051 132.755 37.2191C140.514 40.433 147.564 45.1437 153.503 51.0823C159.441 57.0209 164.152 64.071 167.366 71.8301C170.58 79.5892 172.234 87.9054 172.234 96.3038C172.234 108.953 168.483 121.317 161.456 131.834C154.429 142.351 144.441 150.548 132.755 155.389C121.069 160.229 108.21 161.496 95.8045 159.028C83.3988 156.56 72.0035 150.469 63.0595 141.525C54.1155 132.581 48.0246 121.186 45.557 108.78C43.0894 96.3748 44.3558 83.516 49.1963 71.8301C54.0367 60.1443 62.2337 50.1562 72.7507 43.129C83.2677 36.1017 95.6324 32.351 108.281 32.351Z" fill="#E2E3F0"/>
<path fill-rule="evenodd" clip-rule="evenodd" d="M108.281 44.2467C122.087 44.2467 135.328 49.7313 145.091 59.4939C154.853 69.2565 160.338 82.4974 160.338 96.3038C160.338 106.6 157.285 116.665 151.565 125.225C145.845 133.786 137.715 140.458 128.202 144.398C118.69 148.339 108.223 149.369 98.1251 147.361C88.0269 145.352 78.7512 140.394 71.4709 133.114C64.1905 125.834 59.2326 116.558 57.2239 106.46C55.2153 96.3617 56.2462 85.8947 60.1863 76.3825C64.1264 66.8703 70.7987 58.7401 79.3594 53.0199C87.9202 47.2998 97.9849 44.2467 108.281 44.2467Z" fill="#F0F0F7"/>
<path fill-rule="evenodd" clip-rule="evenodd" d="M108.281 56.1424C118.933 56.1424 129.148 60.3737 136.68 67.9054C144.211 75.4371 148.443 85.6524 148.443 96.3039C148.443 104.247 146.087 112.012 141.674 118.616C137.261 125.221 130.989 130.368 123.65 133.408C116.312 136.448 108.237 137.243 100.446 135.694C92.6554 134.144 85.4993 130.319 79.8827 124.702C74.266 119.086 70.441 111.93 68.8913 104.139C67.3417 96.3484 68.137 88.2733 71.1768 80.9347C74.2165 73.5962 79.3641 67.3238 85.9686 62.9108C92.5731 58.4978 100.338 56.1424 108.281 56.1424Z" fill="white"/>
<path d="M108.281 20.4552C128.398 20.4552 147.69 28.4464 161.914 42.6708C176.139 56.8951 184.13 76.1875 184.13 96.3038C184.13 111.305 179.682 125.97 171.347 138.443C163.013 150.916 151.167 160.638 137.307 166.379C123.448 172.12 108.197 173.622 93.484 170.695C78.7708 167.769 65.2559 160.545 54.6482 149.937C44.0406 139.329 36.8167 125.814 33.8901 111.101C30.9634 96.388 32.4655 81.1374 38.2063 67.2778C43.9471 53.4183 53.6689 41.5723 66.1421 33.238C78.6154 24.9036 93.28 20.4552 108.281 20.4552Z" stroke="#004394" stroke-width="5.6693"/>
<path fill-rule="evenodd" clip-rule="evenodd" d="M95.2188 167.376C95.8789 167.791 97.161 167.655 97.8792 167.318C99.1059 166.744 99.2844 163.555 99.197 162.33C99.109 161.097 98.649 160.977 98.8171 159.705C99.1074 157.51 98.5722 157.491 99.9083 154.393C103.386 146.331 103.983 148.791 104.708 140.137C104.954 137.201 105.174 137.653 106.147 135.181C107.003 133.007 105.407 133.355 107.172 130.177L105.804 126.236C103.704 126.282 104.258 127.376 103.517 129.27C103.032 130.509 102.25 132.029 101.857 133.196C101.324 134.779 101.298 138.601 99.2178 141.582C99.6355 143.051 99.0723 143.367 98.6527 144.58C98.2452 145.757 98.5332 147.152 98.5634 148.383C98.6459 151.723 98.0546 151.937 96.9008 154.655C96.0001 156.777 95.5506 160.807 96.3625 162.997C96.8271 164.249 95.7239 166.748 95.2188 167.376Z" fill="#004394"/>
<path fill-rule="evenodd" clip-rule="evenodd" d="M134.286 86.7776C135.182 87.2802 135.218 88.5543 136.43 88.9935C137.377 88.5143 137.364 87.6684 137.463 86.6624C137.561 85.6751 137.696 84.8304 137.807 83.8607C136.655 84.0922 134.917 85.7977 134.286 86.7776Z" fill="#FBFBFB"/>
<path fill-rule="evenodd" clip-rule="evenodd" d="M71.0898 16.5902C71.9578 18.1219 72.2465 19.5114 71.953 20.7637C71.6597 22.0158 70.8045 23.0418 69.3895 23.8439C67.9743 24.6459 66.6549 24.8523 65.4297 24.4608C64.2045 24.0691 63.1583 23.1031 62.2864 21.5649C61.4149 20.027 61.1283 18.6362 61.4301 17.3934C61.7297 16.1521 62.5915 15.128 64.011 14.3234C65.4303 13.519 66.7485 13.3104 67.9624 13.7025C69.1789 14.0936 70.2205 15.0564 71.0898 16.5902ZM64.3463 20.4119C64.9319 21.4453 65.5685 22.1105 66.256 22.4134C66.9444 22.7132 67.6791 22.6416 68.4579 22.2003C70.0219 21.3139 70.2134 19.8315 69.036 17.754C67.8564 15.6723 66.4904 15.0727 64.9352 15.9541C64.1542 16.3968 63.7166 16.9925 63.6169 17.7414C63.5192 18.4896 63.762 19.3809 64.3463 20.4119ZM83.6823 17.5303L81.5767 18.3056L78.554 10.0966L76.1131 10.9954L76.3406 11.95C76.914 14.376 77.2663 16.1011 77.3976 17.1176C77.5276 18.1372 77.456 18.9116 77.1832 19.4477C76.9093 19.982 76.4195 20.3737 75.7111 20.6241C75.3295 20.7645 74.9754 20.8368 74.6478 20.8437L74.0104 19.1126C74.3067 19.1067 74.5728 19.0615 74.8032 18.9766C75.0452 18.8875 75.1956 18.7079 75.2538 18.4355C75.3143 18.1622 75.2961 17.7036 75.1993 17.0604C75.1047 16.4162 74.9092 15.3756 74.6152 13.9383C74.3201 12.4984 74.0232 11.1466 73.7203 9.87898L80.0118 7.56222L83.6823 17.5303ZM83.8637 6.42662L85.837 5.96882L86.9966 10.9661L87.2807 12.3104L87.5613 13.8487L87.6047 13.8387L90.5544 4.8741L93.1797 4.26482L95.5808 14.6122L93.6269 15.0656L92.4739 10.0972C92.3193 9.43066 92.1339 8.43504 91.9154 7.10868L91.8599 7.12163L88.905 16.1614L86.265 16.774L83.8637 6.42662ZM102.755 14L99.6648 5.84819L99.6004 5.85244C99.8011 7.53896 99.9209 8.66411 99.9572 9.2284L100.275 14.1597L98.266 14.2895L97.5825 3.68912L100.643 3.49167L103.673 11.4362L103.717 11.4332L105.857 3.15562L108.915 2.95837L109.599 13.5586L107.503 13.6938L107.179 8.67575C107.164 8.44048 107.152 8.16572 107.139 7.85585C107.126 7.54592 107.106 6.72234 107.077 5.38511L107.012 5.38915L104.813 13.8671L102.755 14ZM120.655 14.4743L118.42 14.2742L119.201 5.56118L115.309 5.21231L114.528 13.9253L112.286 13.7244L113.234 3.14454L121.603 3.89444L120.655 14.4743ZM125.96 4.57531L127.923 5.07754L126.651 10.0475L126.284 11.3716L125.824 12.8665L125.867 12.8776L132.614 6.27848L135.225 6.94674L132.591 17.2373L130.648 16.7399L131.913 11.7988C132.082 11.1358 132.376 10.1668 132.793 8.88887L132.738 8.87466L125.952 15.5379L123.326 14.866L125.96 4.57531ZM140.84 20.3284L135.123 18.1543L138.898 8.22547L144.615 10.3995L143.96 12.1238L140.347 10.7501L139.517 12.9332L142.877 14.211L142.222 15.9353L138.861 14.6576L137.888 17.2164L141.501 18.59L140.84 20.3284ZM151.258 23.2455L152.671 23.9612L150.466 28.3171L148.528 27.336L149.926 24.5752L142.949 21.0425L147.747 11.5657L149.756 12.5826L145.804 20.3871L149.295 22.1545L153.246 14.35L155.248 15.3636L151.258 23.2455Z" fill="#004394"/>
<path fill-rule="evenodd" clip-rule="evenodd" d="M22.1698 113.591L21.9346 112.27L24.6313 111.79L24.1905 109.315L21.4938 109.795L21.2578 108.47L27.5092 107.357L27.7452 108.682L25.2937 109.118L25.7347 111.593L28.1862 111.157L28.4214 112.477L22.1698 113.591ZM28.688 113.82L28.9873 114.994L26.0154 115.752L25.216 115.939L24.2999 116.126L24.3066 116.152L29.7027 117.799L30.1008 119.36L23.9479 120.929L23.6516 119.767L26.6059 119.014C27.0021 118.913 27.5949 118.789 28.3848 118.641L28.3762 118.608L22.9354 116.959L22.535 115.39L28.688 113.82ZM28.0641 122.859L30.1272 119.762L30.6317 121.053L28.5151 124.086L31.3796 122.966L31.8363 124.134L28.9716 125.254L32.5843 126.047L33.0904 127.342L29.4725 126.462L27.2207 129.767L26.6955 128.424L28.9192 125.274L25.9222 126.446L25.4657 125.278L28.4627 124.106L24.6923 123.3L24.1672 121.956L28.0641 122.859ZM29.2076 134.012L27.6694 130.694L33.4302 128.023L34.9684 131.341L33.9679 131.804L32.9958 129.708L31.7291 130.295L32.6331 132.245L31.6327 132.709L30.7287 130.759L29.2442 131.448L30.2162 133.544L29.2076 134.012ZM37.3982 135.797L36.4287 136.341L35.1233 134.016L30.5559 136.58L29.897 135.407L35.434 132.298L37.3982 135.797ZM38.213 143.079C37.3319 143.655 36.5137 143.879 35.7557 143.751C34.9974 143.623 34.353 143.152 33.8213 142.338C33.2896 141.524 33.117 140.744 33.3045 139.999C33.4918 139.253 34.029 138.593 34.9138 138.015C35.7987 137.437 36.6174 137.213 37.3702 137.347C38.1222 137.479 38.7655 137.954 39.2989 138.771C39.8322 139.587 40.0062 140.366 39.8181 141.105C39.6306 141.845 39.0951 142.503 38.213 143.079ZM35.6793 139.2C35.0847 139.588 34.7118 139.993 34.5568 140.415C34.404 140.837 34.4744 141.272 34.767 141.72C35.3546 142.62 36.2463 142.678 37.4414 141.898C38.6389 141.116 38.9452 140.278 38.3608 139.384C38.0673 138.934 37.6954 138.696 37.2447 138.664C36.7947 138.634 36.2722 138.813 35.6793 139.2ZM39.8786 145.115L40.1504 145.465C40.4051 145.793 40.6595 145.988 40.9149 146.048C41.1699 146.111 41.4214 146.045 41.6683 145.854C41.9176 145.66 42.0487 145.449 42.0625 145.221C42.0753 144.993 41.9696 144.733 41.7431 144.442L41.3677 143.959L39.8786 145.115ZM42.5395 146.898C41.9996 147.317 41.4556 147.469 40.9081 147.354C40.3606 147.239 39.8452 146.87 39.3624 146.248L39.0076 145.792L37.2236 147.177L36.3981 146.114L41.4131 142.219L42.6568 143.82C43.1296 144.429 43.3577 144.993 43.3429 145.513C43.3263 146.033 43.0581 146.495 42.5395 146.898ZM46.1156 152.952C45.3289 153.651 44.5526 153.993 43.7839 153.979C43.0152 153.963 42.3086 153.592 41.6626 152.865C41.0168 152.138 40.7314 151.393 40.8071 150.628C40.8827 149.862 41.3167 149.13 42.1067 148.428C42.8969 147.726 43.674 147.385 44.438 147.406C45.2013 147.426 45.9077 147.801 46.5554 148.531C47.2031 149.26 47.4899 150.004 47.4125 150.763C47.3361 151.523 46.9035 152.252 46.1156 152.952ZM43.0383 149.488C42.5074 149.96 42.1982 150.415 42.1071 150.855C42.0181 151.294 42.1517 151.715 42.5072 152.115C43.2208 152.918 44.1112 152.845 45.1784 151.897C46.2479 150.947 46.4276 150.074 45.7178 149.275C45.3615 148.874 44.9585 148.692 44.508 148.728C44.0585 148.764 43.5679 149.018 43.0383 149.488ZM44.9986 154.886L45.3531 155.225C46.2372 154.908 47.0571 154.531 47.8116 154.094C48.5671 153.656 49.3228 153.128 50.0789 152.509L52.7519 155.067L49.1368 158.845L49.7485 159.43L47.6951 161.577L46.7569 160.679L48.0356 159.342L45.1621 156.593L43.8832 157.93L42.9452 157.032L44.9986 154.886ZM50.0762 154.058C49.5509 154.472 48.9538 154.873 48.2861 155.26C47.6173 155.646 46.9807 155.962 46.3758 156.204L48.1676 157.918L51.008 154.949L50.0762 154.058ZM55.3411 158.727C54.9529 158.401 54.5311 158.295 54.0727 158.407C53.6156 158.521 53.1678 158.838 52.7306 159.359C51.8205 160.444 51.7716 161.327 52.5857 162.01C52.9262 162.296 53.4122 162.559 54.0409 162.794L53.3149 163.659C52.7761 163.492 52.2605 163.2 51.7689 162.788C51.0615 162.194 50.701 161.526 50.6866 160.782C50.6721 160.039 51.0021 159.265 51.6758 158.462C52.0997 157.957 52.5632 157.592 53.0664 157.366C53.5695 157.139 54.0789 157.07 54.5935 157.155C55.1094 157.242 55.5983 157.48 56.0614 157.868C56.5337 158.265 56.9109 158.777 57.1965 159.405L56.1606 159.964C56.0513 159.725 55.9314 159.497 55.8017 159.278C55.6722 159.059 55.5184 158.875 55.3411 158.727ZM58.5836 167.877L57.3377 166.992L57.3234 163.035L55.46 165.658L54.3628 164.879L58.0401 159.702L59.1373 160.482L57.356 162.989L60.9933 161.8L62.1619 162.63L58.5086 163.775L58.5836 167.877ZM62.717 170.539L63.1277 169.013L61.1647 167.785L59.9737 168.823L58.7432 168.054L64.0242 163.836L65.4193 164.708L63.9461 171.308L62.717 170.539ZM63.454 167.884C63.8193 166.498 64.0267 165.713 64.0768 165.533C64.1266 165.353 64.1693 165.212 64.2054 165.112C63.9275 165.375 63.209 166.006 62.0515 167.007L63.454 167.884ZM67.839 170.675L65.4003 172.156L64.0739 171.468L66.9619 169.82C66.7102 169.526 66.5699 169.201 66.5392 168.844C66.5088 168.488 66.5875 168.126 66.7764 167.762C67.0446 167.245 67.4349 166.943 67.9453 166.853C68.4557 166.764 69.0545 166.897 69.7414 167.253L71.5758 168.204L68.6533 173.842L67.4584 173.223L68.5798 171.059L67.839 170.675ZM69.8732 168.564L69.2837 168.259C68.9746 168.098 68.7076 168.03 68.4807 168.052C68.2537 168.075 68.0727 168.215 67.9397 168.472C67.8099 168.722 67.7911 168.961 67.8807 169.191C67.9707 169.419 68.1846 169.622 68.5242 169.798L69.0834 170.088L69.8732 168.564ZM79.4366 175.123C79.0605 176.106 78.5294 176.768 77.8404 177.108C77.1512 177.449 76.3528 177.446 75.4448 177.098C74.5366 176.75 73.9396 176.22 73.6543 175.507C73.3686 174.793 73.4164 173.943 73.7941 172.956C74.1718 171.969 74.7041 171.308 75.3918 170.974C76.0785 170.64 76.8784 170.648 77.7894 170.996C78.7002 171.345 79.2978 171.873 79.5787 172.583C79.8611 173.292 79.8134 174.139 79.4366 175.123ZM75.1093 173.467C74.8554 174.13 74.7908 174.677 74.9124 175.109C75.0361 175.54 75.3487 175.852 75.8484 176.043C76.852 176.427 77.6085 175.952 78.1187 174.619C78.6299 173.283 78.3871 172.425 77.389 172.043C76.8879 171.851 76.4465 171.876 76.0632 172.115C75.6809 172.354 75.3623 172.805 75.1093 173.467ZM82.1425 175.307L82.6511 175.458C83.4439 175.694 84.0084 176.036 84.3457 176.488C84.6821 176.937 84.7638 177.458 84.5888 178.046C84.2115 179.315 83.1849 179.699 81.5098 179.201L79.7367 178.674L81.5474 172.587L85.3916 173.731L85.0746 174.797L82.5203 174.037L82.1425 175.307ZM81.3411 178L81.7745 178.129C82.2092 178.258 82.548 178.284 82.7932 178.203C83.0367 178.123 83.2019 177.941 83.2861 177.659C83.3693 177.379 83.326 177.145 83.1582 176.961C82.9905 176.776 82.6562 176.61 82.1575 176.462L81.828 176.364L81.3411 178ZM90.273 181.57L88.9669 181.263L90.1642 176.172L88.6507 175.816L88.4496 176.368C87.9363 177.766 87.5435 178.743 87.2742 179.293C87.0029 179.845 86.712 180.207 86.3992 180.385C86.0866 180.561 85.7133 180.595 85.2774 180.486C85.0408 180.431 84.8407 180.35 84.6748 180.246L84.9272 179.172C85.0771 179.267 85.2247 179.332 85.3676 179.365C85.5175 179.401 85.6519 179.361 85.7707 179.244C85.891 179.128 86.033 178.893 86.1966 178.54C86.3618 178.188 86.6069 177.605 86.9341 176.79C87.2612 175.975 87.5585 175.203 87.8251 174.471L91.7266 175.389L90.273 181.57ZM95.9079 182.556L95.6677 180.994L93.3759 180.663L92.7053 182.094L91.2691 181.886L94.398 175.895L96.0263 176.13L97.3427 182.763L95.9079 182.556ZM95.5105 179.83C95.285 178.414 95.1582 177.612 95.131 177.427C95.1037 177.242 95.0859 177.095 95.0787 176.99C94.9305 177.342 94.5282 178.21 93.8733 179.594L95.5105 179.83ZM101.635 177.892C101.131 177.835 100.721 177.981 100.402 178.328C100.084 178.676 99.8871 179.188 99.8119 179.864C99.655 181.271 100.104 182.034 101.16 182.152C101.602 182.201 102.152 182.15 102.806 181.998L102.681 183.121C102.14 183.28 101.549 183.323 100.911 183.252C99.9932 183.149 99.3228 182.793 98.8987 182.182C98.4748 181.571 98.3208 180.744 98.437 179.702C98.5099 179.047 98.6931 178.486 98.9867 178.019C99.2803 177.552 99.6658 177.211 100.142 176.997C100.619 176.784 101.158 176.711 101.759 176.778C102.372 176.846 102.969 177.063 103.555 177.428L103.002 178.467C102.779 178.329 102.553 178.206 102.324 178.095C102.094 177.985 101.865 177.917 101.635 177.892ZM106.688 183.474L105.342 183.431L105.507 178.205L103.784 178.15L103.819 177.03L108.611 177.181L108.575 178.301L106.852 178.247L106.688 183.474ZM114.816 183.316L113.476 183.384L113.337 180.648L110.826 180.776L110.966 183.512L109.622 183.58L109.299 177.239L110.643 177.17L110.769 179.657L113.28 179.529L113.153 177.042L114.493 176.974L114.816 183.316ZM120.51 182.753L119.895 181.298L117.592 181.539L117.292 183.09L115.849 183.241L117.415 176.666L119.051 176.495L121.952 182.603L120.51 182.753ZM119.457 180.208C118.892 178.89 118.572 178.144 118.501 177.971C118.429 177.798 118.376 177.661 118.343 177.56C118.286 177.938 118.108 178.878 117.812 180.38L119.457 180.208ZM124.574 179.669L123.62 182.357L122.157 182.663L123.354 179.56C122.973 179.491 122.659 179.328 122.41 179.071C122.161 178.814 121.994 178.484 121.91 178.083C121.791 177.512 121.903 177.032 122.242 176.64C122.581 176.248 123.129 175.973 123.887 175.815L125.909 175.393L127.207 181.609L125.889 181.884L125.391 179.498L124.574 179.669ZM124.817 176.747L124.167 176.883C123.826 176.954 123.576 177.07 123.414 177.231C123.252 177.392 123.201 177.615 123.26 177.898C123.317 178.173 123.454 178.37 123.669 178.492C123.883 178.612 124.177 178.634 124.551 178.556L125.168 178.428L124.817 176.747ZM132.89 174.669C132.406 174.818 132.087 175.114 131.933 175.56C131.78 176.006 131.803 176.554 132.002 177.204C132.418 178.558 133.133 179.079 134.149 178.767C134.574 178.636 135.059 178.371 135.598 177.971L135.93 179.051C135.497 179.412 134.971 179.687 134.358 179.875C133.475 180.146 132.718 180.086 132.086 179.694C131.454 179.302 130.984 178.604 130.676 177.602C130.483 176.972 130.428 176.384 130.511 175.839C130.595 175.294 130.813 174.828 131.165 174.443C131.518 174.057 131.983 173.776 132.561 173.598C133.151 173.417 133.786 173.379 134.468 173.481L134.374 174.654C134.114 174.616 133.858 174.592 133.603 174.582C133.349 174.572 133.112 174.601 132.89 174.669ZM142.22 177.062L140.965 177.537L139.115 172.646L136.93 173.473L138.781 178.364L137.522 178.84L135.275 172.901L139.973 171.123L142.22 177.062ZM147.719 171.033C148.183 171.978 148.306 172.818 148.087 173.554C147.868 174.291 147.321 174.874 146.449 175.302C145.576 175.731 144.781 175.807 144.064 175.531C143.347 175.254 142.756 174.64 142.29 173.692C141.825 172.743 141.702 171.903 141.926 171.172C142.149 170.442 142.699 169.861 143.575 169.431C144.45 169.001 145.244 168.923 145.955 169.2C146.667 169.476 147.254 170.088 147.719 171.033ZM143.56 173.076C143.873 173.714 144.23 174.133 144.629 174.338C145.029 174.541 145.47 174.524 145.951 174.288C146.915 173.815 147.082 172.937 146.452 171.656C145.822 170.372 145.028 169.966 144.069 170.437C143.587 170.673 143.305 171.014 143.219 171.457C143.134 171.9 143.248 172.44 143.56 173.076ZM150.038 169.604L150.425 169.388C150.788 169.185 151.018 168.963 151.117 168.72C151.217 168.477 151.19 168.219 151.037 167.946C150.883 167.67 150.695 167.509 150.471 167.461C150.248 167.414 149.976 167.479 149.653 167.659L149.119 167.958L150.038 169.604ZM152.201 167.242C152.534 167.838 152.603 168.399 152.407 168.923C152.21 169.447 151.768 169.901 151.081 170.285L150.576 170.567L151.678 172.539L150.503 173.195L147.406 167.651L149.176 166.662C149.849 166.287 150.441 166.146 150.953 166.239C151.465 166.334 151.881 166.668 152.201 167.242ZM157.608 168.979L156.469 169.696L153.684 165.27L152.225 166.188L151.628 165.24L155.685 162.687L156.282 163.635L154.823 164.553L157.608 168.979ZM156.193 162.291L157.156 161.557L159.015 163.996L159.5 164.658L160.031 165.428L160.052 165.412L159.458 159.802L160.739 158.825L164.589 163.875L163.636 164.602L161.787 162.177C161.539 161.852 161.194 161.355 160.749 160.686L160.722 160.706L161.331 166.359L160.043 167.341L156.193 162.291ZM161.836 157.896L163.329 156.602C164.01 156.012 164.588 155.68 165.063 155.608C165.539 155.535 165.959 155.71 166.326 156.134C166.574 156.42 166.711 156.714 166.736 157.014C166.76 157.314 166.677 157.581 166.486 157.811L166.515 157.843C166.877 157.648 167.207 157.585 167.502 157.654C167.799 157.723 168.081 157.912 168.347 158.22C168.727 158.658 168.863 159.137 168.76 159.656C168.656 160.175 168.333 160.669 167.79 161.139L165.994 162.695L161.836 157.896ZM164.501 158.917L165.093 158.404C165.368 158.166 165.531 157.95 165.581 157.757C165.63 157.564 165.569 157.37 165.398 157.173C165.238 156.988 165.057 156.915 164.853 156.951C164.65 156.988 164.402 157.132 164.111 157.384L163.575 157.848L164.501 158.917ZM165.2 159.723L166.283 160.974L166.946 160.399C167.228 160.155 167.387 159.923 167.427 159.7C167.47 159.477 167.393 159.255 167.202 159.034C166.857 158.637 166.4 158.684 165.831 159.177L165.2 159.723ZM174.188 154.772L173.268 155.748L171.275 153.869L169.55 155.698L171.543 157.577L170.62 158.556L166 154.201L166.923 153.221L168.735 154.93L170.459 153.1L168.648 151.392L169.568 150.416L174.188 154.772ZM177.96 150.468L176.517 149.822L174.996 151.567L175.833 152.907L174.879 154L171.547 148.12L172.628 146.881L178.913 149.376L177.96 150.468ZM175.455 149.322C174.143 148.743 173.401 148.414 173.231 148.336C173.06 148.258 172.928 148.194 172.835 148.143C173.051 148.459 173.561 149.267 174.368 150.569L175.455 149.322ZM178.683 145.344L179.833 147.955L178.978 149.181L177.721 146.103C177.396 146.314 177.056 146.41 176.699 146.394C176.341 146.378 175.993 146.253 175.656 146.018C175.179 145.684 174.93 145.258 174.908 144.74C174.886 144.223 175.097 143.646 175.539 143.012L176.721 141.317L181.929 144.95L181.159 146.054L179.161 144.66L178.683 145.344ZM176.856 143.052L176.476 143.597C176.277 143.882 176.174 144.138 176.167 144.366C176.16 144.594 176.275 144.792 176.512 144.957C176.743 145.118 176.977 145.168 177.217 145.109C177.456 145.05 177.684 144.864 177.903 144.551L178.264 144.034L176.856 143.052ZM185.841 136.312L186.804 134.592L182.241 132.037L182.896 130.866L188.437 133.969L184.536 140.936L178.996 137.833L179.653 136.659L184.216 139.214L185.179 137.494L180.616 134.939L181.278 133.757L185.841 136.312ZM191.123 127.478L190.516 128.88L186.648 129.716L189.601 130.994L189.067 132.229L183.239 129.707L183.774 128.472L186.597 129.694L184.678 126.383L185.247 125.067L187.126 128.403L191.123 127.478ZM190.238 120.086C191.242 120.4 191.936 120.889 192.319 121.555C192.702 122.222 192.748 123.019 192.458 123.947C192.168 124.875 191.676 125.504 190.981 125.833C190.286 126.162 189.435 126.168 188.426 125.852C187.418 125.537 186.725 125.047 186.349 124.381C185.973 123.717 185.931 122.918 186.222 121.987C186.513 121.056 187.003 120.427 187.693 120.102C188.384 119.776 189.232 119.771 190.238 120.086ZM188.855 124.508C189.532 124.72 190.082 124.75 190.506 124.602C190.928 124.452 191.22 124.12 191.38 123.609C191.7 122.584 191.179 121.858 189.816 121.432C188.451 121.005 187.61 121.301 187.291 122.321C187.131 122.834 187.183 123.272 187.446 123.64C187.709 124.007 188.178 124.297 188.855 124.508ZM194.949 114.685L194.617 115.984L189.55 114.695L189.166 116.201L189.714 116.412C191.103 116.951 192.072 117.362 192.617 117.641C193.164 117.923 193.521 118.22 193.693 118.536C193.863 118.852 193.89 119.225 193.774 119.659C193.714 119.895 193.629 120.093 193.522 120.258L192.454 119.985C192.551 119.837 192.619 119.691 192.655 119.549C192.693 119.399 192.655 119.264 192.541 119.143C192.427 119.021 192.195 118.875 191.845 118.705C191.495 118.533 190.917 118.277 190.109 117.935C189.3 117.593 188.533 117.282 187.806 117.002L188.795 113.118L194.949 114.685ZM195.931 109.046L194.368 109.281L194.029 111.571L195.457 112.247L195.244 113.682L189.265 110.531L189.506 108.903L196.144 107.612L195.931 109.046ZM193.204 109.433C191.787 109.653 190.984 109.777 190.799 109.804C190.614 109.83 190.468 109.847 190.362 109.854C190.714 110.004 191.58 110.409 192.961 111.069L193.204 109.433Z" fill="#004394"/>
<path fill-rule="evenodd" clip-rule="evenodd" d="M112.442 86.1932C110.98 80.4733 109.517 74.7532 108.054 69.0333C132.283 42.6223 168.214 61.9709 192.443 35.5599C193.906 41.2798 195.368 46.9998 196.831 52.7198C172.602 79.1308 136.672 59.7822 112.442 86.1932Z" fill="white"/>
<path fill-rule="evenodd" clip-rule="evenodd" d="M116.831 103.353C115.368 97.6332 113.905 91.9131 112.442 86.1932C136.671 59.7822 172.602 79.1308 196.831 52.7198C198.294 58.4397 199.757 64.1598 201.219 69.8798C176.99 96.2908 141.06 76.9422 116.831 103.353Z" fill="#00509E"/>
<path fill-rule="evenodd" clip-rule="evenodd" d="M121.219 120.513C119.756 114.793 118.293 109.073 116.831 103.353C141.06 76.9422 176.99 96.2908 201.219 69.8798C202.682 75.5998 204.145 81.3199 205.608 87.0398C181.379 113.451 145.448 94.1022 121.219 120.513Z" fill="#E64446"/>
<path fill-rule="evenodd" clip-rule="evenodd" d="M196.234 53.3481L196.155 53.036L192.037 36.934C179.886 49.4596 165.075 51.2008 150.263 52.9393C135.483 54.6744 120.703 56.4116 108.84 69.1442L113.025 85.5793C112.831 85.7837 112.635 85.983 112.442 86.1931L108.054 69.0332C132.283 42.6222 168.214 61.9709 192.443 35.5599L196.831 52.7199C196.634 52.9351 196.433 53.1391 196.234 53.3481Z" fill="#004394"/>
<path fill-rule="evenodd" clip-rule="evenodd" d="M103.666 86.1932C105.129 80.4733 106.592 74.7532 108.054 69.0333C83.8253 42.6223 47.8946 61.9709 23.6656 35.5599C22.2028 41.2798 20.7401 46.9998 19.2773 52.7198C43.5063 79.1308 79.437 59.7822 103.666 86.1932Z" fill="white"/>
<path fill-rule="evenodd" clip-rule="evenodd" d="M99.2778 103.353C100.741 97.6332 102.203 91.9131 103.666 86.1932C79.4371 59.7822 43.5064 79.1308 19.2774 52.7198C17.8147 58.4397 16.3519 64.1598 14.8892 69.8798C39.1182 96.2908 75.0489 76.9422 99.2778 103.353Z" fill="#00509E"/>
<path fill-rule="evenodd" clip-rule="evenodd" d="M94.8897 120.513C96.3524 114.793 97.8152 109.073 99.2779 103.353C75.0489 76.9422 39.1182 96.2908 14.8892 69.8798C13.4265 75.5998 11.9637 81.3199 10.501 87.0398C34.7299 113.451 70.6607 94.1022 94.8897 120.513Z" fill="#E64446"/>
<path fill-rule="evenodd" clip-rule="evenodd" d="M19.8739 53.3481L19.9536 53.036L24.0711 36.934C36.2223 49.4596 51.0339 51.2008 65.8451 52.9393C80.6251 54.6744 95.405 56.4116 107.269 69.1442L103.083 85.5793C103.278 85.7837 103.473 85.983 103.666 86.1931L108.054 69.0332C83.8252 42.6222 47.8945 61.9709 23.6655 35.5599L19.2773 52.7199C19.4747 52.9351 19.675 53.1391 19.8739 53.3481Z" fill="#004394"/>
<path fill-rule="evenodd" clip-rule="evenodd" d="M101.732 83.157C101.556 84.9754 101.266 87.9173 101.273 89.6783C101.28 91.224 102.1 90.4032 101.546 92.5827C101.372 93.2697 101.101 94.7943 100.908 95.2256C100.482 96.1773 99.8204 95.9809 99.4058 97.0905C99.1792 97.6973 98.9215 99.1167 98.7533 99.8372C94.7514 116.986 97.613 110.073 98.2077 116.068C98.4035 118.043 98.9445 119.244 98.9748 121.575C99.0002 123.516 99.023 125.787 98.9642 127.72C98.8386 131.839 97.7644 136.439 98.2419 140.365C98.5045 142.523 98.443 143.955 98.871 145.968L100.318 153.997C100.184 155.134 100.358 154.191 100.001 154.661C99.9734 154.697 99.9277 154.726 99.9005 154.762C99.8736 154.798 99.8299 154.83 99.8055 154.867C99.7811 154.904 99.744 154.943 99.7239 154.983C99.7034 155.022 99.6768 155.069 99.6621 155.112C99.4522 155.714 99.7786 155.929 99.8644 156.426C99.9926 157.166 99.7636 157.297 99.9089 157.968C100.043 158.587 100.277 158.243 100.211 159.079C100.116 160.3 99.9275 159.393 100.407 160.312C100.873 161.203 100.714 163.91 100.39 164.824L98.9852 168.006C97.4835 170.306 97.3827 169.419 97.2281 171.47C96.3227 173.932 105.501 174.7 106.555 170.7C106.892 169.092 107.123 168.317 107.001 167.998C106.675 167.231 108.004 165.952 108.111 165.051C108.904 162.003 106.721 162.36 106.724 160.606L106.594 156.512L106.821 155.078C105.687 154.006 105.938 154.361 106.311 152.737C106.883 150.244 107.141 146.382 107.728 143.567C108.72 138.814 107.676 135.715 107.003 131.518C106.82 130.374 108.385 125.084 108.871 123.019C109.267 121.339 109.157 119.635 109.956 117.022C110.304 115.883 110.841 115.568 111.126 114.83L112.218 109.056C112.359 107.965 112.388 106.867 112.894 106.064C113.43 105.211 114.471 105.316 114.966 106.149C115.719 107.418 115.307 110.296 115.626 112.104C115.709 112.573 115.843 113.045 115.962 113.536L115.987 115.094C116.191 115.858 116.691 116.229 116.914 117.399C117.425 120.083 117.131 121.765 117.343 123.478C117.604 125.584 118.588 131.012 118.282 132.13C116.848 136.477 115.651 139.52 116.405 144.317C116.852 147.158 116.917 151.028 116.676 153.299C115.894 155.476 116.812 155.115 115.752 156.26L116.073 157.676L116.215 161.769C115.404 164.702 114.837 165.337 116.485 168.021C116.85 168.852 117.836 169.898 117.748 170.727C117.725 171.068 118.133 171.716 119.835 171.925C122.511 171.754 125.395 171.214 126.308 170.53C126.317 169.995 126.402 169.434 124.295 167.671L122.658 165.382C122.275 164.491 122.093 161.976 122.498 161.056C122.916 160.107 122.788 161.024 122.612 159.812C122.491 158.983 122.748 159.311 122.84 158.684C122.94 158.005 122.703 157.89 122.782 157.142C122.835 156.641 123.146 156.405 122.896 155.818C122.587 155.091 122.745 155.864 122.487 154.476L125.132 147.156C125.659 145.167 125.669 143.733 126.039 141.591C126.711 137.694 125.868 133.047 126.684 129.223C126.835 127.295 127.103 125.039 127.338 123.113C127.62 120.799 128.288 119.664 128.696 117.721C129.241 115.127 128.811 115.583 129.256 114.838C129.229 114.532 130.22 113.674 130.177 113.31L129.648 106.512C129.615 103.34 128.417 99.8579 127.967 97.1341C127.776 95.9718 127.784 94.9397 127.55 93.8272C127.168 92.0133 126.97 92.5636 127.353 90.7045C127.638 89.3236 127.291 88.5169 127.303 87.2687L127.423 83.5481C127.372 82.2925 127.897 82.0813 127.633 80.7687C127.342 79.3238 127.537 79.2387 127.883 77.9223C128.422 75.8759 127.378 74.635 128.342 72.1973C129.046 70.4198 129.614 69.0216 130.009 66.9971C130.576 64.0957 131.023 64.0431 131.181 63.0439C131.235 62.7019 131.164 62.7404 131.273 62.3702C131.287 62.3251 131.302 62.2732 131.318 62.2337L131.611 61.8768C132.535 57.7159 130.466 59.4821 135.469 55.7379C138.098 53.7702 141.001 53.1014 141.585 52.4025C142.658 51.1172 143.304 51.2847 145.28 49.5608C146.611 48.7421 147.492 47.8676 149.221 47.1115C149.706 46.786 151.817 45.9293 152.336 45.759C154.727 43.7597 156.481 42.9139 158.725 39.53C159.584 38.236 160.49 37.0699 161.461 35.7586C163.307 33.2648 162.893 34.0479 164.467 32.3116C166.282 29.7225 166.545 32.1391 170.281 28.4199C172.366 26.3442 174.505 26.4501 175.593 25.8179C176.635 25.2121 176.388 24.7352 175.185 24.8154C173.592 24.9218 172.611 25.918 170.785 25.7973C170.875 24.8703 170.608 25.3353 172.014 24.304C172.52 23.9328 172.927 23.6964 173.418 23.3377C174.07 22.8619 174.734 22.6043 175.211 22.0752C176.237 20.9356 175.755 20.1261 174.392 21.0158C174.285 21.0857 174.164 21.1651 174.014 21.2525C172.598 22.0756 170.227 23.794 169.471 23.8544C169.676 22.6605 171.293 21.8719 172.066 21.2428C173.133 20.3738 173.988 20.099 174.362 19.7018C174.979 19.0468 174.408 18.2917 173.237 18.7465C172.725 18.9453 172.134 19.3076 171.412 19.7264C171.008 19.9608 170.928 20.1091 170.51 20.4132C170.001 20.758 169.689 20.9773 169.231 21.3966C168.866 21.7312 168.59 22.1986 167.907 22.2549C167.415 21.2099 169.707 18.9477 170.534 17.0707C171.088 15.8138 170.618 15.576 169.531 16.2961C167.518 17.6301 166.052 22.3237 164.207 22.4558C162.146 19.912 164.079 17.4438 161.779 17.0833C161.149 16.9845 161.604 18.3885 161.594 18.968C161.584 19.605 161.499 20.1148 161.597 20.7774C162.061 23.9354 161.672 21.9903 161.767 24.1374C161.91 27.3615 163.454 27.0138 160.758 29.3044C158.059 31.5979 154.962 33.545 151.898 35.3417C151.444 35.7433 151.073 35.8009 150.616 36.1391C150.293 36.3784 149.87 36.742 149.516 37.0604C146.466 39.8067 147.164 39.9476 142.229 42.2018C141.314 42.6199 140.517 43.0704 139.535 43.6925C137.138 45.2101 137.776 44.0153 136.381 44.6902C134.482 45.6096 132.316 46.058 130.393 46.812C129.221 47.2068 128.818 47.3207 127.905 47.8731C126.343 48.8187 124.429 48.1078 122.518 47.233C120.254 46.1967 120.059 47.0892 119.826 46.2794C118.72 45.9878 119.029 43.7026 119.192 42.4809C119.347 41.3212 119.63 41.4308 119.82 40.6524C119.98 39.9956 119.896 39.2246 120.031 38.4801C120.971 37.6703 120.589 38.6455 121.029 37.3077C121.467 35.9752 121.593 34.7691 121.052 33.6788C120.598 32.7643 121.049 32.8171 120.817 31.8124C120.596 30.8586 120.641 30.9557 120.651 29.8336C120.662 28.7063 120.52 29.019 120.171 28.1896C119.46 26.497 120.088 27.0877 117.995 25.9393C116.447 25.0899 117.504 24.7015 115.043 24.3998C112.72 24.1149 113.553 23.6652 111.473 24.6825C110.356 25.2286 109.501 25.3203 108.493 26.0493C108.175 26.2796 106.508 28.2642 106.431 28.4349C106.139 29.08 105.754 31.5291 105.802 32.3372C105.846 33.0587 106.142 33.5299 106.207 34.0919C106.331 35.1672 105.878 34.9318 105.936 36.0169C105.977 36.7936 106.863 38.4997 107.321 38.9938C107.906 39.6264 108.877 39.2177 109.126 41.5853C109.825 48.2486 108.055 46.8727 106.606 47.7416C105.523 48.3914 104.986 48.7414 103.463 48.9366C101.573 49.179 101.174 48.7344 99.7436 48.3839C98.6685 47.9796 98.0736 47.6058 96.9289 47.2441C92.2991 45.7815 92.6157 45.248 91.8624 44.9849C90.9145 44.6539 90.3004 45.2895 89.4438 44.2932C80.833 42.8763 81.1516 40.7524 75.8272 39.0835C73.324 38.2987 70.9214 37.8134 68.319 37.0619C67.0779 36.7036 62.4857 34.9664 61.6865 34.3948C61.5297 31.2269 61.8138 32.397 60.6369 29.7941C60.0502 28.4967 60.2505 27.2832 59.6326 26.4705C59.4821 26.2726 59.0262 25.795 58.8168 25.6516C58.1566 25.1996 58.8481 24.9926 57.8318 24.8156C57.2388 25.5511 57.6195 26.4109 58.0236 27.0557C58.6411 28.0412 58.536 28.1756 58.3905 29.4991C55.4972 29.1453 54.6707 24.4056 52.527 23.6743C51.8467 23.4423 51.7205 23.6165 51.7997 24.3199C51.8493 24.7594 52.0679 25.0637 52.2933 25.3923C52.8132 26.15 54.7021 28.7771 54.765 29.5604C53.3547 29.6528 51.7238 26.3297 49.7425 25.4373C48.8203 25.0219 48.2943 25.0805 48.8083 26.1728C49.6395 27.9393 52.7898 29.6805 53.1915 31.1674C52.4312 31.4602 51.5924 30.5678 50.4201 29.6909C50.1642 29.4995 49.1705 28.5224 48.4214 28.1355C47.5884 27.7055 47.3377 28.3508 47.6322 29.0195C47.9499 29.739 50.1716 31.3639 50.8746 31.8781C51.4255 32.2813 51.9313 32.5158 51.9954 33.1316C50.9124 33.5612 49.1097 31.6938 47.8545 31.253C47.131 30.9988 46.7574 31.3113 47.2798 31.8942C47.6656 32.3245 49.0653 33.2955 49.5565 33.6021L55.3171 37.0135C56.6074 37.617 58.245 38.3013 59.5405 38.9703C60.9566 39.702 62.6414 39.9374 63.5765 41.1368C64.1728 41.2165 68.6376 44.727 69.8397 45.5003C73.1418 47.6243 76.9571 48.0585 77.4755 48.5897C79.0435 48.7764 80.724 49.4812 81.983 50.0997L86.2422 52.064C87.4351 52.3988 86.2238 52.8592 87.7743 53.3675C88.7523 53.688 89.3614 53.6202 90.3213 54.0851C92.9985 55.3821 95.4062 57.0998 97.447 59.4048C99.042 61.2063 98.9096 61.5561 99.0533 64.0881C100.028 64.5252 100.305 66.3544 100.666 67.5298C101.838 71.3483 103.559 72.6908 101.962 75.3308C101.043 76.848 102.487 77.1532 101.907 79.4897L101.732 83.157Z" fill="#004394"/>
<path fill-rule="evenodd" clip-rule="evenodd" d="M94.1735 74.7426L94.3595 72.4857C94.5556 70.4598 93.4932 69.5458 95.1725 67.8191C95.5343 67.4472 95.7594 67.106 96.0004 66.7514C96.7742 65.6131 97.5767 66.1467 98.4065 65.3418C100.041 63.7558 102.094 63.8145 104.092 64.658C105.437 65.226 107.456 67.2479 107.804 68.5409C108.334 70.5139 108.46 71.4748 108.449 73.56C108.444 74.5162 108.233 74.4085 107.866 74.9105C107.297 75.6901 107.456 76.5682 106.578 77.3189C105.944 77.8607 106.197 77.6948 105.925 78.4536C105.523 79.5769 104.476 80.3724 104.358 80.7108C104.258 80.999 104.283 81.34 104.29 81.6445L104.341 82.2194C104.484 82.8146 105.007 82.7486 105.537 82.8203C106.066 82.8919 106.1 83.0791 106.732 83.0953C107.356 83.1113 108.648 82.7896 109.128 82.4996C109.327 82.379 109.725 82.0183 109.935 81.8677C110.228 81.6586 110.575 81.4516 110.876 81.27C112.692 80.1757 112.404 81.0146 113.037 80.9683C114.288 80.3559 116.137 78.7369 117.209 77.7239C118.529 76.4761 119.558 75.2644 120.97 74.1137C122.988 72.4702 125.446 71.2331 127.312 69.3946C129.579 67.1614 127.535 65.6312 129.48 64.542C130.116 64.1857 131.127 63.3391 131.591 63.4522L132.743 64.3072C133.038 64.7183 132.738 64.6299 133.16 64.9685C133.486 65.2294 133.501 65.0098 133.723 65.4769C133.858 65.7634 133.822 65.8827 133.98 66.1763C134.223 66.6289 134.299 66.3519 134.231 66.9879C134.173 67.5201 133.796 68.0366 133.471 68.4212C132.808 69.2067 132.005 69.638 130.995 70.1081C129.418 70.8417 126.381 75.4213 125.245 76.9591C122.829 80.2318 118.704 83.4814 115.719 86.2242C115.292 86.6169 114.852 86.7909 114.874 87.4043C114.923 88.808 113.769 88.735 112.884 89.5732C110.386 91.9394 109.005 102.732 110.145 107.957C110.426 109.248 110.883 110.068 111.208 111.416C111.68 113.374 111.612 115.463 111.954 117.441C112.209 118.916 112.727 119.821 111.074 120.476C110.987 122.419 111.101 125.175 111.213 127.144C111.456 131.396 110.767 135.776 111.23 139.982C111.334 140.928 111.373 141.998 111.484 143.008C111.605 144.118 112.044 144.896 111.981 145.983C111.888 147.659 111.537 151.425 111.677 152.881C111.824 154.408 111.813 157.167 111.568 158.679C111.443 159.454 110.964 160.287 110.907 160.976C110.844 161.744 111.095 162.174 110.874 162.86L110.798 163.459C110.694 164.248 110.304 163.649 110.916 165.707C111.37 167.236 112.055 168.677 112.272 170.289C112.503 172.004 109.484 172.012 108.161 172.012C102.564 172.012 106.073 169.558 105.362 166.056L105.069 164.961L105.314 163.816L105.296 163C105.362 161.692 105.678 160.902 105.684 158.828C105.692 156.197 105.44 153.602 105.373 150.969C105.309 148.452 105.31 145.477 104.626 143.356C103.278 139.178 103.015 134.583 102.21 130.274C102.13 129.845 102.181 129.725 101.857 129.629C101.502 130.87 101.639 136.743 101.615 138.491C101.593 140.034 101.538 141.446 101.441 142.926C101.319 144.77 101.099 146.478 101.096 148.243C101.086 152.813 100.288 158.01 100.815 162.404C101.022 164.129 100.502 165.353 101.562 167.106C103.451 170.228 97.981 169.2 96.7929 169.821C95.3469 170.577 94.1407 171.004 92.105 171.004C90.7222 171.004 88.759 170.603 87.8789 169.77C87.6675 168.845 88.3455 168.11 88.9626 167.819L91.0721 166.72C91.743 166.265 92.2197 165.673 92.7177 165.266C93.3776 164.728 94.1015 164.542 94.3018 163.538L95.3824 162.458C95.3675 161.862 95.2737 161.794 95.2043 161.315C95.1385 160.862 95.2008 160.466 95.1822 160.017C95.1491 159.221 94.8426 158.567 94.7495 157.86C94.5485 156.332 95.0313 154.514 95.0313 152.881C95.0313 151.539 94.7309 150.48 94.6793 149.32C94.6184 147.947 94.5027 146.803 94.5017 145.389C94.5058 143.192 94.8383 140.992 94.3788 138.918C93.9646 137.048 93.6306 135.119 93.247 133.15C92.4859 129.242 92.0166 124.932 91.8509 120.891C90.5574 120.082 90.5672 119.114 90.5326 117.558C90.3555 109.603 91.8691 109.423 91.8684 103.881C91.8677 99.0945 90.7273 94.6679 90.558 89.9641C90.5119 88.6819 89.9957 88.3352 89.0019 87.7097C86.3872 86.0642 87.6999 85.7547 86.455 84.555L83.654 81.5234C81.2527 78.712 79.4252 75.8729 77.6151 72.3376C77.1943 71.5158 75.478 67.8335 74.9978 67.3592C74.4522 66.8204 73.4577 66.5302 72.7947 65.7444C72.37 65.2411 71.8064 64.438 72.0934 63.7739C72.2153 63.4919 72.1767 63.6784 72.2802 63.4728C72.4192 63.1968 72.3422 63.3035 72.4356 63.0189C72.6999 62.214 73.0071 62.5213 73.3264 62.0399C73.537 61.7225 73.3871 61.6915 73.6958 61.4401C73.9536 61.2303 73.9804 61.3401 74.281 61.0805C75.103 60.3704 75.3388 60.9331 76.0308 61.4443C76.2853 61.6322 76.3398 61.6238 76.6496 61.7814C78.6038 62.7761 76.8569 64.0222 78.747 67.2805C79.6461 68.8305 80.8042 70.3095 81.8638 71.7907C83.5931 74.2076 84.521 76.2506 86.9402 78.2467C87.3665 78.5984 88.7321 79.7106 89.1134 79.8775C89.7981 80.1773 89.8885 79.4454 91.649 80.9086C94.4363 83.2253 93.5043 82.3059 95.6539 82.3979C96.5051 82.4343 96.2917 82.5486 96.9092 81.9265C97.7598 81.0694 98.0164 79.7937 97.2337 79.3774C96.5724 79.0257 96.2325 79.5419 95.9326 78.7739L95.2847 77.5252C95.1254 76.9706 95.2984 76.3223 95.1439 75.7388C94.9603 75.0451 94.7022 75.0798 94.1735 74.7426Z" fill="#F7C700"/>
</svg>
