<svg width="41" height="41" viewBox="0 0 41 41" fill="none" xmlns="http://www.w3.org/2000/svg">
<path d="M20.0748 0C9.01522 0 0.0498047 8.96541 0.0498047 20.025C0.0498047 31.0846 9.01522 40.05 20.0748 40.05C31.1344 40.05 40.0998 31.0846 40.0998 20.025C40.0998 8.96541 31.1344 0 20.0748 0Z" fill="white"/>
<path d="M29.8186 11.5192L26.242 29.5521C26.242 29.5521 25.7418 30.8028 24.3662 30.2025L16.1125 23.8746L13.1112 22.424L8.05896 20.7232C8.05896 20.7232 7.28362 20.4481 7.20852 19.8478C7.13359 19.2476 8.08399 18.9225 8.08399 18.9225L28.1678 11.0439C28.1678 11.0439 29.8186 10.3186 29.8186 11.5192Z" fill="#040A3D"/>
<path d="M15.4781 29.3497C15.4781 29.3497 15.2372 29.3272 14.937 28.3766C14.6369 27.4262 13.1112 22.424 13.1112 22.424L25.2415 14.7207C25.2415 14.7207 25.9419 14.2955 25.9169 14.7207C25.9169 14.7207 26.0419 14.7956 25.6668 15.1457C25.2916 15.496 16.1375 23.7246 16.1375 23.7246" fill="white"/>
<path d="M19.2772 26.3009L16.0125 29.2774C16.0125 29.2774 15.7573 29.4711 15.4781 29.3497L16.1032 23.8208" fill="#040A3D"/>
</svg>
