<svg width="41" height="41" viewBox="0 0 41 41" fill="none" xmlns="http://www.w3.org/2000/svg">
<path d="M40.05 20.025C40.05 31.0845 31.0845 40.05 20.025 40.05C8.9655 40.05 0 31.0845 0 20.025C0 8.9655 8.9655 0 20.025 0C31.0845 0 40.05 8.9655 40.05 20.025Z" fill="#040A3D"/>
<path fill-rule="evenodd" clip-rule="evenodd" d="M20.025 0C31.0845 0 40.05 8.9655 40.05 20.025C40.05 31.0845 31.0845 40.05 20.025 40.05C8.9655 40.05 0 31.0845 0 20.025C0 8.9655 8.9655 0 20.025 0ZM30.9056 13.3399C31.7111 13.3399 31.8804 13.7289 31.7111 14.2584C31.3725 15.7143 28.1272 20.0027 28.1272 20.0027C27.845 20.4262 27.7322 20.638 28.1272 21.1144C28.2663 21.2972 28.5632 21.5699 28.9028 21.882C29.2521 22.203 29.6467 22.5656 29.9615 22.9145C31.1057 24.122 31.968 25.1406 32.2082 25.8427C32.4277 26.5471 32.0472 26.9041 31.2861 26.9041H28.6225C27.909 26.9041 27.5498 26.5292 26.7735 25.7191C26.4444 25.3757 26.0405 24.9542 25.5029 24.4499C23.9226 23.0204 23.2453 22.8351 22.8502 22.8351C22.314 22.8351 22.1536 22.9776 22.1536 23.6915V25.9323C22.1536 26.5471 21.9442 26.9041 20.251 26.9041C17.4291 26.9041 14.328 25.2969 12.1269 22.3322C8.82525 17.9908 7.9222 14.7084 7.9222 14.0465C7.9222 13.676 8.07442 13.3399 8.83549 13.3399H11.4991C12.1799 13.3399 12.4359 13.6194 12.6912 14.3113C13.994 17.8711 16.1905 20.9822 17.0935 20.9822C17.4321 20.9822 17.5874 20.8359 17.5874 20.0292V16.3496C17.5263 15.3022 17.1363 14.8492 16.8474 14.5137C16.6689 14.3066 16.5291 14.1442 16.5291 13.9142C16.5291 13.6348 16.7837 13.3399 17.2069 13.3399H21.3926C21.9571 13.3399 22.1536 13.623 22.1536 14.2584V19.2085C22.1536 19.7379 22.3987 19.9232 22.568 19.9232C22.9066 19.9232 23.1888 19.7379 23.8097 19.1556C25.7286 17.1437 27.0831 14.0465 27.0831 14.0465C27.2525 13.676 27.5647 13.3399 28.242 13.3399H30.9056Z" fill="white"/>
</svg>
